<?xml version="1.0" encoding="UTF-8" standalone="no"?>
<svg
   xmlns:dc="http://purl.org/dc/elements/1.1/"
   xmlns:cc="http://creativecommons.org/ns#"
   xmlns:rdf="http://www.w3.org/1999/02/22-rdf-syntax-ns#"
   xmlns:svg="http://www.w3.org/2000/svg"
   xmlns="http://www.w3.org/2000/svg"
   id="Ebene_2"
   data-name="Ebene 2"
   viewBox="0 0 240.00001 122"
   version="1.1"
   width="240"
   height="122">
  <metadata
     id="metadata217">
    <rdf:RDF>
      <cc:Work
         rdf:about="">
        <dc:format>image/svg+xml</dc:format>
        <dc:type
           rdf:resource="http://purl.org/dc/dcmitype/StillImage" />
        <dc:title></dc:title>
      </cc:Work>
    </rdf:RDF>
  </metadata>
  <defs
     id="defs4">
    <style
       id="style2">.cls-1{fill:none;}.cls-2{fill:#fff;}.cls-3{fill:#0091d8;}.cls-4{fill:#ffd800;}</style>
  </defs>
  <g
     id="g3072">
    <path
       class="cls-1"
       d="m 104.60292,12.525611 h -7.239702 a 1.3696734,1.3738172 0 0 0 -1.509436,1.514003 c 0,1.065409 0,2.102782 0,3.140154 a 1.453531,1.4579285 0 0 0 1.565341,1.598113 h 7.183797 a 1.3976259,1.4018543 0 0 0 1.48149,-1.514003 v -3.252302 a 1.3417209,1.3457802 0 0 0 -1.48149,-1.485965 z"
       id="path8"
       style="stroke-width:2.79948" />
    <path
       class="cls-1"
       d="m 104.60292,22.927371 h -7.295607 a 1.3417209,1.3457802 0 0 0 -1.453531,1.457928 c 0,1.093446 0,2.158855 0,3.252302 a 1.3976259,1.4018543 0 0 0 1.509436,1.514003 h 7.239702 a 1.3976259,1.4018543 0 0 0 1.53739,-1.54204 v -3.196228 a 1.3696734,1.3738172 0 0 0 -1.53739,-1.485965 z"
       id="path16"
       style="stroke-width:2.79948" />
    <path
       class="cls-1"
       d="m 134.54007,18.749844 h 7.46332 a 1.3696734,1.3738172 0 0 0 1.39763,-1.457928 v -3.392487 a 1.2858159,1.289706 0 0 0 -1.39763,-1.373818 h -7.43537 a 1.3137684,1.317743 0 0 0 -1.36967,1.289705 v 3.588747 a 1.3417209,1.3457802 0 0 0 1.34172,1.345781 z"
       id="path20"
       style="stroke-width:2.79948" />
    <path
       class="cls-1"
       d="m 141.97544,43.758925 h -7.37947 a 1.3417209,1.3457802 0 0 0 -1.39762,1.373817 v 3.616785 a 1.3417209,1.3457802 0 0 0 1.39762,1.401855 q 3.68973,0 7.37947,0 a 1.3696734,1.3738172 0 0 0 1.42558,-1.457929 v -3.476598 a 1.3417209,1.3457802 0 0 0 -1.42558,-1.45793 z"
       id="path22"
       style="stroke-width:2.79948" />
    <path
       class="cls-1"
       d="m 96.468738,54.945724 h 46.345272 c 0.5311,0 0.64292,-0.252335 0.58701,-0.841112 H 95.881734 c -0.0559,0.588777 0.08386,0.756999 0.587004,0.841112 z"
       id="path24"
       style="stroke-width:2.79948" />
    <path
       class="cls-1"
       d="m 97.363218,50.011197 h 7.239702 a 1.3976259,1.4018543 0 0 0 1.48149,-1.45793 V 45.16078 a 1.3696734,1.3738172 0 0 0 -1.45354,-1.401855 h -7.323557 a 1.3417209,1.3457802 0 0 0 -1.453531,1.45793 c 0,1.093447 0,2.158855 0,3.252302 a 1.4255785,1.4298914 0 0 0 1.509436,1.54204 z"
       id="path26"
       style="stroke-width:2.79948" />
    <path
       class="cls-1"
       d="m 128.19485,22.927371 h -17.1908 a 1.229911,1.233632 0 0 0 -1.39763,1.373816 v 3.36445 a 1.3137684,1.317743 0 0 0 1.48148,1.485967 h 17.07899 a 1.3417209,1.3457802 0 0 0 1.50944,-1.485967 v -3.252301 c 0.0838,-0.897186 -0.44724,-1.485965 -1.48148,-1.485965 z"
       id="path28"
       style="stroke-width:2.79948" />
    <path
       class="cls-1"
       d="m 97.307313,39.553363 h 7.295607 a 1.3417209,1.3457802 0 0 0 1.48149,-1.485966 v -3.336414 a 1.3696734,1.3738172 0 0 0 -1.48149,-1.401855 h -7.351512 a 1.3417209,1.3457802 0 0 0 -1.397626,1.485968 q 0,1.654188 0,3.280338 a 1.3696734,1.3738172 0 0 0 1.453531,1.457929 z"
       id="path30"
       style="stroke-width:2.79948" />
    <path
       class="cls-1"
       d="m 142.03135,22.927371 h -7.37947 a 1.3417209,1.3457802 0 0 0 -1.45353,1.429891 v 3.280339 a 1.3696734,1.3738172 0 0 0 1.5374,1.514003 h 7.23969 a 1.3696734,1.3738172 0 0 0 1.45353,-1.429891 c 0,-1.149521 0,-2.271004 0,-3.420526 a 1.3137684,1.317743 0 0 0 -1.39762,-1.373816 z"
       id="path34"
       style="stroke-width:2.79948" />
    <path
       class="cls-1"
       d="m 111.11585,50.011197 h 17.02308 a 1.3696734,1.3738172 0 0 0 1.62126,-1.54204 v -3.280339 a 1.2578634,1.2616689 0 0 0 -1.45354,-1.429893 H 110.9761 a 1.229911,1.233632 0 0 0 -1.36968,1.317744 v 3.476598 a 1.3417209,1.3457802 0 0 0 1.50943,1.45793 z"
       id="path36"
       style="stroke-width:2.79948" />
    <path
       class="cls-1"
       d="M 128.22279,12.497575 H 111.032 c -0.97835,0 -1.42558,0.448593 -1.42558,1.457928 v 3.280338 a 1.3137684,1.317743 0 0 0 1.50943,1.514003 h 17.02308 a 1.3417209,1.3457802 0 0 0 1.62126,-1.542041 v -3.224264 c 0,-1.037371 -0.5311,-1.457928 -1.5374,-1.485964 z"
       id="path38"
       style="stroke-width:2.79948" />
    <path
       class="cls-1"
       d="m 111.032,39.553363 h 17.10693 c 1.0622,0 1.5374,-0.47663 1.5374,-1.54204 V 34.95528 c 0,-1.205595 -0.41929,-1.626152 -1.6492,-1.626152 h -17.16285 a 1.2019584,1.2055948 0 0 0 -1.25786,1.261671 v 3.588746 a 1.2858159,1.289706 0 0 0 1.42558,1.373818 z"
       id="path40"
       style="stroke-width:2.79948" />
    <path
       class="cls-1"
       d="m 142.14315,33.357167 h -7.63104 a 1.2858159,1.289706 0 0 0 -1.31376,1.317742 v 3.560711 a 1.3137684,1.317743 0 0 0 1.42558,1.317743 h 7.40742 a 1.3137684,1.317743 0 0 0 1.39762,-1.289706 q 0,-1.82241 0,-3.616783 a 1.2858159,1.289706 0 0 0 -1.28582,-1.289707 z"
       id="path48"
       style="stroke-width:2.79948" />
    <path
       class="cls-3"
       d="m 180.3851,29.045163 h -0.31037 v 2.235941 h 5.64332 a 17.494303,17.547891 0 0 0 -1.94696,-1.245334 9.0011016,9.0286726 0 0 0 -3.38599,-0.990607 z"
       id="path176"
       style="stroke-width:2.82598" />
    <path
       class="cls-3"
       d="m 151.84268,29.123567 h -3.68973 a 1.1181009,1.1214836 0 0 1 -1.17401,-1.233633 q 0,-1.906521 0,-3.785007 a 1.1460533,1.1495206 0 0 1 1.22991,-1.205594 h 3.63383 v -4.149489 h -3.63383 a 1.1740059,1.1775578 0 0 1 -1.25786,-1.317743 v -3.616785 a 1.1740059,1.1775578 0 0 1 1.31376,-1.289705 h 3.57793 V 8.4882704 h -4.89169 V 6.6938972 H 92.27586 v 1.7102626 h -4.835787 v 4.1214512 h 3.66178 a 1.1460533,1.1495206 0 0 1 1.201959,1.261669 v 3.672858 a 1.1460533,1.1495206 0 0 1 -1.201959,1.261671 h -3.66178 v 4.205562 h 3.689734 a 1.1740059,1.1775578 0 0 1 1.174005,1.233631 v 3.75697 a 1.1181009,1.1214836 0 0 1 -1.1181,1.205595 h -3.745639 v 2.214929 H 151.73087 Z M 133.19835,13.815316 a 1.3137684,1.317743 0 0 1 1.36967,-1.289705 h 7.43537 a 1.2858159,1.289706 0 0 1 1.39763,1.373818 v 3.392487 a 1.3696734,1.3738172 0 0 1 -1.39763,1.457928 h -7.46332 a 1.3417209,1.3457802 0 0 1 -1.34172,-1.345781 z m -27.11394,13.794248 a 1.3976259,1.4018543 0 0 1 -1.48149,1.514003 h -7.239702 a 1.3976259,1.4018543 0 0 1 -1.509436,-1.514003 c 0,-1.093447 0,-2.158855 0,-3.252302 a 1.3417209,1.3457802 0 0 1 1.453531,-1.457929 h 7.295607 a 1.3696734,1.3738172 0 0 1 1.48149,1.485966 z m 0,-10.373723 a 1.3976259,1.4018543 0 0 1 -1.48149,1.514003 h -7.21175 a 1.453531,1.4579285 0 0 1 -1.565341,-1.598113 c 0,-1.037373 0,-2.074745 0,-3.140155 a 1.3696734,1.3738172 0 0 1 1.509436,-1.514001 h 7.267655 a 1.3417209,1.3457802 0 0 1 1.48149,1.485964 z m 23.67578,10.429796 a 1.3417209,1.3457802 0 0 1 -1.50944,1.485967 H 111.0879 a 1.3137684,1.317743 0 0 1 -1.48148,-1.485967 v -3.36445 a 1.229911,1.233632 0 0 1 1.39763,-1.373816 h 17.1908 c 1.03424,0 1.48148,0.448592 1.48148,1.485965 z m 0,-10.457834 a 1.3417209,1.3457802 0 0 1 -1.5374,1.542041 h -17.10694 a 1.3137684,1.317743 0 0 1 -1.50943,-1.514003 v -3.280338 c 0,-1.009335 0.44723,-1.429892 1.42558,-1.457928 h 17.19079 c 1.0063,0 1.45354,0.448593 1.45354,1.485964 z m 13.75263,10.51391 a 1.3696734,1.3738172 0 0 1 -1.45352,1.429891 h -7.32355 a 1.3696734,1.3738172 0 0 1 -1.5374,-1.514003 v -3.280339 a 1.3417209,1.3457802 0 0 1 1.45353,-1.429891 h 7.37947 a 1.3137684,1.317743 0 0 1 1.39762,1.373816 c 0.028,1.149522 0.028,2.271005 0,3.420526 z"
       id="path178"
       style="stroke-width:2.79948" />
    <path
       class="cls-3"
       d="m 155.92375,21.245146 a 12.858159,12.89706 0 0 0 0.83856,4.626118 11.43258,11.467167 0 0 0 2.34803,3.869119 10.09086,10.121388 0 0 0 1.84486,1.598113 h 5.28302 v -2.214929 h -0.13975 a 6.8763199,6.8971234 0 0 1 -3.94131,-2.299042 v 0 l -0.16772,-0.252333 a 8.972759,8.9999051 0 0 1 -1.48147,-5.327046 v -8.77561 h 28.9588 V 8.4602336 h -33.54302 z"
       id="path180"
       style="stroke-width:2.79948" />
    <path
       class="cls-3"
       d="m 147.03484,3.8901884 a 1.8169138,1.8224107 0 0 0 -3.60587,0 1.8169138,1.8224107 0 0 0 3.60587,0 z"
       id="path182"
       style="stroke-width:2.79948" />
    <rect
       class="cls-3"
       x="168.13901"
       y="18.749847"
       width="21.048246"
       height="4.0934143"
       id="rect184"
       style="stroke-width:2.79948" />
    <path
       class="cls-3"
       d="m 121.84963,0.52573785 a 5.3948364,5.4111579 0 0 0 -2.79525,-0.50466759 7.6030855,7.6260877 0 0 0 -5.0035,2.97193124 7.4074178,7.4298281 0 0 0 -1.34172,2.4392266 h 13.97625 a 4.1090204,4.1214518 0 0 0 -0.19567,-0.4766305 9.0566165,9.0840162 0 0 0 -4.64011,-4.42985975 z"
       id="path186"
       style="stroke-width:2.79948" />
    <path
       class="cls-3"
       d="m 95.853782,3.8901884 a 1.7330562,1.7382994 0 0 0 -1.788962,-1.7943737 1.7610087,1.7663365 0 0 0 -1.761008,1.7943737 1.7889613,1.7943736 0 0 0 3.54997,0 z"
       id="path188"
       style="stroke-width:2.79948" />
    <rect
       class="cls-3"
       x="50.570705"
       y="18.693771"
       width="20.992344"
       height="4.2055635"
       id="rect190"
       style="stroke-width:2.79948" />
    <path
       class="cls-3"
       d="m 133.2263,3.8901884 a 1.7889613,1.7943736 0 1 0 -1.81691,1.7382993 1.7051037,1.7102623 0 0 0 1.81691,-1.7382993 z"
       id="path192"
       style="stroke-width:2.79948" />
    <path
       class="cls-3"
       d="M 59.571411,29.123567 H 59.34779 a 8.916854,8.9438309 0 0 0 -3.494063,0.95326 l -0.642909,0.364483 v 0 c -0.419288,0.252334 -0.810624,0.560742 -1.201959,0.841112 h 5.590504 z"
       id="path194"
       style="stroke-width:2.79948" />
    <path
       class="cls-3"
       d="m 77.209451,14.852689 a 8.8609489,8.8877567 0 0 1 2.068486,5.859751 v 0.392519 a 9.2522841,9.2802758 0 0 1 -1.45353,5.299011 6.8483673,6.8690863 0 0 1 -4.192879,2.635485 h -0.195667 v 2.158857 h 5.338931 a 12.159346,12.196133 0 0 0 1.816914,-1.598115 12.74635,12.784912 0 0 0 2.348011,-3.869117 13.109732,13.149394 0 0 0 0.838576,-4.654157 V 20.71244 A 13.529019,13.569949 0 0 0 82.883813,15.693801 12.075489,12.112022 0 0 0 80.535801,11.824684 10.87353,10.906426 0 0 0 77.069689,9.3574199 9.8951921,9.9251289 0 0 0 72.932715,8.4882704 H 50.5707 v 3.9812656 h 20.489196 a 7.7148955,7.738236 0 0 1 6.149555,2.383153 z"
       id="path196"
       style="stroke-width:2.79948" />
    <path
       class="cls-3"
       d="m 109.66232,3.8901884 a 1.7889613,1.7943736 0 1 0 -1.78895,1.7943735 1.7610087,1.7663365 0 0 0 1.78895,-1.7943735 z"
       id="path198"
       style="stroke-width:2.79948" />
    <path
       class="cls-4"
       d="m 148.09815,33.356847 h 3.63382 V 31.338176 H 87.441177 v 2.018671 h 3.717685 a 1.1181009,1.1214836 0 0 1 1.146053,1.205594 v 3.785006 a 1.1181009,1.1214836 0 0 1 -1.201959,1.205597 h -3.77359 v 4.205562 h 3.577923 a 1.2019584,1.2055948 0 0 1 1.285816,1.289708 v 3.532671 a 1.2578634,1.2616689 0 0 1 -1.397626,1.429892 c -1.006291,0 -3.466113,0 -3.466113,0 v 4.093415 h 4.863739 V 56.908 h 54.675125 v -2.803708 h 4.86374 V 49.98284 h -3.74564 c -0.75471,0 -1.1181,-0.532705 -1.1181,-1.289706 q 0,-1.794373 0,-3.616785 a 1.2019584,1.2055948 0 0 1 1.34173,-1.317743 h 3.52201 v -4.205562 h -3.63382 a 1.1460533,1.1495206 0 0 1 -1.22992,-1.26167 c 0,-1.233632 0,-2.439228 0,-3.672857 a 1.1460533,1.1495206 0 0 1 1.22992,-1.26167 z m -38.60243,1.373816 a 1.2019584,1.2055948 0 0 1 1.25786,-1.261667 h 17.16284 c 1.22992,0 1.6492,0.420556 1.6492,1.626151 v 3.056042 c 0,1.065409 -0.4752,1.542039 -1.53739,1.542039 H 110.9213 a 1.2858159,1.289706 0 0 1 -1.42558,-1.373816 z m 0,10.485873 a 1.229911,1.233632 0 0 1 1.36967,-1.317744 h 17.2467 a 1.2578634,1.2616689 0 0 1 1.45353,1.429891 v 3.140154 a 1.3696734,1.3738172 0 0 1 -1.53739,1.54204 h -17.02309 a 1.3417209,1.3457802 0 0 1 -1.50942,-1.45793 z M 95.743075,34.730663 a 1.3417209,1.3457802 0 0 1 1.397626,-1.485964 h 7.351509 a 1.3696734,1.3738172 0 0 1 1.45354,1.514003 v 3.224264 a 1.3417209,1.3457802 0 0 1 -1.48148,1.485966 h -7.267664 a 1.3696734,1.3738172 0 0 1 -1.453531,-1.457928 q -0.0559,-1.54204 0,-3.280341 z m 0,10.40176 a 1.3417209,1.3457802 0 0 1 1.453531,-1.457927 h 7.295604 a 1.3696734,1.3738172 0 0 1 1.45354,1.401853 v 3.392488 a 1.3976259,1.4018543 0 0 1 -1.48148,1.457927 h -7.211759 a 1.4255785,1.4298914 0 0 1 -1.509436,-1.542039 c -0.02796,-1.009335 -0.02796,-2.074744 0,-3.168189 z M 142.7033,54.861291 H 96.358031 c -0.503146,0 -0.642909,-0.252331 -0.614956,-0.841111 h 47.519285 c 0.0839,0.67289 -0.028,0.841111 -0.55906,0.925224 z m 0.58702,-6.392454 a 1.3696734,1.3738172 0 0 1 -1.42558,1.457927 q -3.68974,0 -7.37947,0 a 1.3417209,1.3457802 0 0 1 -1.39762,-1.401854 v -3.392487 a 1.3417209,1.3457802 0 0 1 1.39762,-1.373817 h 7.37947 a 1.3417209,1.3457802 0 0 1 1.42558,1.45793 z m 0,-10.289611 a 1.3137684,1.317743 0 0 1 -1.39763,1.289706 h -7.37947 a 1.3137684,1.317743 0 0 1 -1.42557,-1.317743 v -3.420526 a 1.2858159,1.289706 0 0 1 1.31376,-1.317742 h 7.63104 a 1.2858159,1.289706 0 0 1 1.28581,1.289705 q 0.0559,1.766338 0,3.560711 z"
       id="path200"
       style="stroke-width:2.79948" />
    <rect
       class="cls-4"
       x="61.472183"
       y="39.609436"
       width="21.914776"
       height="4.0934143"
       id="rect202"
       style="stroke-width:2.79948" />
    <path
       class="cls-4"
       d="M 83.470095,49.812692 H 53.840348 v -8.775609 a 9.1684505,9.1961646 0 0 1 1.453535,-5.270972 l 0.195667,-0.252334 v 0 a 6.8763378,6.8971234 0 0 1 3.941315,-2.299041 h 0.167717 v -1.93456 h -5.590519 a 11.935757,11.971836 0 0 0 -1.50944,1.401855 11.768042,11.803614 0 0 0 -2.348019,3.841081 13.109766,13.149394 0 0 0 -0.838577,4.654158 v 12.756873 h 34.158068 z"
       id="path204"
       style="stroke-width:2.79948" />
    <path
       class="cls-4"
       d="m 180.07473,33.273056 h 0.16771 a 6.6247472,6.6447896 0 0 1 4.19287,2.635486 9.1684266,9.1961646 0 0 1 1.45354,5.270972 v 0.420556 a 8.7770913,8.8036454 0 0 1 -2.06849,5.943864 7.686943,7.710199 0 0 1 -6.14955,2.411188 h -21.80297 v 4.009303 h 23.67579 a 10.118812,10.149425 0 0 0 4.16492,-0.869148 11.181009,11.214836 0 0 0 3.43816,-2.467264 12.075489,12.112022 0 0 0 2.34802,-3.869118 13.473114,13.513876 0 0 0 0.89448,-4.990602 v -0.588779 a 13.109732,13.149394 0 0 0 -0.83859,-4.654156 11.600297,11.635391 0 0 0 -2.34801,-3.841081 9.9790496,10.00924 0 0 0 -1.48148,-1.401855 h -5.6464 z"
       id="path206"
       style="stroke-width:2.79948" />
    <rect
       class="cls-4"
       x="155.95172"
       y="39.553368"
       width="22.222254"
       height="4.2055635"
       id="rect208"
       style="stroke-width:2.79948" />
    <path
       class="cls-4"
       d="m 73.435861,33.162769 h 0.251582 a 8.386086,8.4111261 0 0 0 3.494202,-0.953259 10.846005,10.87839 0 0 0 1.593357,-1.009335 h -5.339141 z"
       id="path210"
       style="stroke-width:2.79954" />
    <path
       class="cls-4"
       d="m 161.8082,31.947334 v 0 l 0.63287,0.386371 a 8.7776518,8.8037644 0 0 0 3.5771,0.993526 h 0.22014 v -1.987055 h -5.28311 a 9.7682331,9.7972926 0 0 0 0.853,0.607158 z"
       id="path212"
       style="stroke-width:2.7557" />
  </g>
  <g
     id="g3474">
    <path
       class="st1"
       d="m 210.48364,69.73658 c 0.54588,0 0.95529,-0.40941 0.95529,-0.95529 0,-0.54588 -0.40941,-0.95529 -0.95529,-0.95529 -0.40941,0 -0.95529,0.40941 -0.95529,0.95529 0,0.54588 0.54588,0.95529 0.95529,0.95529 z m -59.63739,0.68235 h -0.95529 c -0.27294,0 -0.40941,0.13647 -0.27294,0.40941 l 3.68469,12.2823 c 0,0.27294 0.27294,0.40941 0.54588,0.40941 h 1.09176 c 0.27294,0 0.40941,-0.13647 0.54588,-0.40941 l 3.54822,-12.2823 c 0,-0.27294 -0.13647,-0.40941 -0.27294,-0.40941 h -0.81882 c -0.27294,0 -0.40941,0.13647 -0.40941,0.40941 l -2.59293,9.41643 c -0.13647,0.54588 -0.27294,1.50117 -0.40941,2.18352 -0.13647,-0.68235 -0.27294,-1.63764 -0.40941,-2.18352 l -2.59293,-9.41643 c -0.27294,-0.27294 -0.40941,-0.40941 -0.68235,-0.40941 z m 56.22564,-0.68235 c 0.54588,0 0.95529,-0.40941 0.95529,-0.95529 0,-0.54588 -0.40941,-0.95529 -0.95529,-0.95529 -0.40941,0 -0.95529,0.40941 -0.95529,0.95529 0,0.54588 0.54588,0.95529 0.95529,0.95529 z m -2.86587,1.63764 v -0.68235 c 0,-0.27294 -0.13647,-0.40941 -0.40941,-0.40941 h -7.50585 c -0.27294,0 -0.40941,0.13647 -0.40941,0.40941 v 0.68235 c 0,0.27294 0.13647,0.40941 0.40941,0.40941 h 3.00234 v 11.19054 c 0,0.27294 0.13647,0.40941 0.40941,0.40941 h 0.81882 c 0.27294,0 0.40941,-0.13647 0.40941,-0.40941 V 71.78363 h 3.00234 c 0.13647,0 0.27294,-0.13647 0.27294,-0.40941 z m -36.8469,-0.95529 h -5.86821 c -0.27294,0 -0.40941,0.13647 -0.40941,0.40941 v 12.2823 c 0,0.27294 0.13647,0.40941 0.40941,0.40941 h 5.86821 c 0.27294,0 0.40941,-0.13647 0.40941,-0.40941 v -0.68235 c 0,-0.27294 -0.13647,-0.40941 -0.40941,-0.40941 h -4.77645 V 77.3789 h 4.36704 c 0.27294,0 0.40941,-0.13647 0.40941,-0.40941 v -0.54588 c 0,-0.27294 -0.13647,-0.40941 -0.40941,-0.40941 h -4.36704 v -3.95763 h 4.77645 c 0.27294,0 0.40941,-0.13647 0.40941,-0.40941 v -0.68235 c 0,-0.40941 -0.13647,-0.54588 -0.40941,-0.54588 z m -84.474929,9.41643 c 0,-2.04705 -0.95529,-2.86587 -2.45646,-3.54822 l -1.09176,-0.54588 c -1.09176,-0.40941 -2.04705,-0.95529 -2.04705,-2.04705 0,-1.22823 0.68235,-1.91058 2.31999,-1.91058 0.81882,0 1.3647,0.13647 2.04705,0.40941 0.13647,0 0.40941,-0.13647 0.40941,-0.27294 l 0.13647,-0.68235 c 0,-0.27294 0,-0.40941 -0.27294,-0.54588 -0.54588,-0.13647 -1.63764,-0.40941 -2.31999,-0.40941 -2.59293,0 -3.95763,1.50117 -3.95763,3.41175 0,2.18352 1.50117,2.86587 2.86587,3.54822 l 0.95529,0.40941 c 1.09176,0.40941 1.63764,0.95529 1.63764,2.18352 0,1.3647 -0.81882,2.18352 -2.31999,2.18352 -0.95529,0 -1.91058,-0.27294 -2.59293,-0.54588 -0.27294,-0.13647 -0.40941,0 -0.54588,0.27294 l -0.13647,0.81882 c 0,0.27294 0,0.40941 0.27294,0.54588 0.68235,0.27294 1.91058,0.54588 3.00234,0.54588 2.86587,-0.13647 4.0941,-1.91058 4.0941,-3.82116 z m 95.938409,3.13881 c 0.13647,0.27294 0,0.40941 -0.27294,0.40941 h -1.22823 c -0.13647,0 -0.27294,0 -0.40941,-0.27294 -0.54588,-1.63764 -0.95529,-3.13881 -1.50117,-4.0941 -0.40941,-0.81882 -1.09176,-1.63764 -2.45646,-1.63764 h -1.09176 v 5.59527 c 0,0.27294 -0.13647,0.40941 -0.40941,0.40941 h -0.68235 c -0.27294,0 -0.40941,-0.13647 -0.40941,-0.40941 v -12.2823 c 0,-0.27294 0.13647,-0.40941 0.40941,-0.40941 h 3.27528 c 3.13881,0 3.82116,1.91058 3.82116,3.13881 0,1.91058 -1.3647,3.13881 -3.13881,3.27528 1.22823,0.13647 1.91058,1.22823 2.31999,2.18352 0.40941,0.40941 0.95529,1.91058 1.77411,4.0941 z m -4.91292,-6.95997 c 1.50117,0 2.45646,-0.81882 2.45646,-2.31999 0,-1.09176 -0.81882,-2.04705 -2.31999,-2.04705 h -2.04705 v 4.23057 h 1.91058 z m -44.48922,3.54822 v -8.73408 c 0,-0.27294 -0.13647,-0.40941 -0.40941,-0.40941 h -0.68235 c -0.27294,0 -0.40941,0.13647 -0.40941,0.40941 v 8.59761 c 0,2.31999 -1.09176,2.7294 -2.59293,2.7294 -1.91058,0 -2.45646,-1.09176 -2.45646,-3.00234 v -8.46114 c 0,-0.27294 -0.13647,-0.40941 -0.40941,-0.40941 h -0.68235 c -0.27294,0 -0.40941,0.13647 -0.40941,0.40941 v 8.73408 c 0,2.45646 1.09176,3.95763 3.95763,3.95763 2.7294,0.13647 4.0941,-1.22823 4.0941,-3.82116 z m 11.46348,-9.14349 h -0.68235 c -0.27294,0 -0.40941,0.13647 -0.40941,0.40941 v 8.73408 c 0,0.95529 0.13647,2.04705 0.27294,2.86587 -0.27294,-0.68235 -0.40941,-1.50117 -0.81882,-2.45646 l -4.0941,-9.27996 c -0.13647,-0.13647 -0.27294,-0.27294 -0.40941,-0.27294 h -1.50117 c -0.27294,0 -0.40941,0.13647 -0.40941,0.40941 v 12.2823 c 0,0.13647 0.13647,0.40941 0.40941,0.40941 h 0.68235 c 0.27294,0 0.40941,-0.13647 0.40941,-0.40941 v -8.87055 c 0,-0.68235 -0.13647,-2.04705 -0.27294,-2.86587 0.27294,0.81882 0.54588,1.77411 0.81882,2.59293 l 4.0941,9.27996 c 0.13647,0.13647 0.27294,0.27294 0.40941,0.27294 h 1.3647 c 0.27294,0 0.40941,-0.13647 0.40941,-0.40941 v -12.2823 c 0.13647,-0.27294 -0.13647,-0.40941 -0.27294,-0.40941 z m 80.79024,0 h -7.50585 c -0.27294,0 -0.40941,0.13647 -0.40941,0.40941 v 0.68235 c 0,0.27294 0.13647,0.40941 0.40941,0.40941 h 3.00234 v 11.19054 c 0,0.27294 0.13647,0.40941 0.40941,0.40941 h 0.81882 c 0.27294,0 0.40941,-0.13647 0.40941,-0.40941 V 71.9201 h 3.00234 c 0.27294,0 0.40941,-0.13647 0.40941,-0.40941 v -0.68235 c -0.13647,-0.27294 -0.27294,-0.40941 -0.54588,-0.40941 z m -35.89161,5.86821 -1.09176,-0.40941 c -1.09176,-0.40941 -2.04705,-0.95529 -2.04705,-2.04705 0,-1.22823 0.68235,-1.91058 2.31999,-1.91058 0.81882,0 1.3647,0.13647 2.04705,0.40941 0.13647,0 0.40941,-0.13647 0.40941,-0.27294 l 0.13647,-0.68235 c 0,-0.27294 0,-0.40941 -0.27294,-0.54588 -0.54588,-0.13647 -1.63764,-0.40941 -2.31999,-0.40941 -2.59293,0 -3.95763,1.50117 -3.95763,3.41175 0,2.18352 1.50117,2.86587 2.86587,3.54822 l 0.95529,0.40941 c 1.09176,0.40941 1.63764,0.95529 1.63764,2.18352 0,1.3647 -0.81882,2.18352 -2.31999,2.18352 -0.95529,0 -1.91058,-0.27294 -2.59293,-0.54588 -0.27294,-0.13647 -0.40941,0 -0.54588,0.27294 l -0.13647,0.81882 c 0,0.27294 0,0.40941 0.27294,0.54588 0.68235,0.27294 1.91058,0.54588 3.00234,0.54588 2.86587,0 4.0941,-1.77411 4.0941,-3.68469 0,-2.45646 -0.95529,-3.27528 -2.45646,-3.82116 z m 27.83988,6.68703 c 0.13647,0.27294 0,0.40941 -0.27294,0.40941 h -0.95529 c -0.27294,0 -0.40941,-0.13647 -0.54588,-0.40941 l -0.95529,-3.27528 h -4.36704 l -0.81882,3.27528 c 0,0.27294 -0.27294,0.40941 -0.40941,0.40941 h -0.95529 c -0.27294,0 -0.40941,-0.13647 -0.27294,-0.40941 l 3.54822,-12.2823 c 0.13647,-0.27294 0.27294,-0.40941 0.54588,-0.40941 h 1.22823 c 0.27294,0 0.40941,0.13647 0.54588,0.40941 z m -3.00234,-4.50351 -1.50117,-5.59527 c -0.13647,-0.54588 -0.27294,-1.09176 -0.27294,-1.63764 0,0.54588 -0.13647,1.09176 -0.27294,1.63764 l -1.50117,5.59527 z M 193.8343,70.41893 h -3.54822 c -0.27294,0 -0.40941,0.13647 -0.40941,0.40941 v 0.40941 c 0,0.27294 0.13647,0.40941 0.40941,0.40941 h 0.95529 v 10.50819 h -0.95529 c -0.27294,0 -0.40941,0.13647 -0.40941,0.40941 v 0.40941 c 0,0.27294 0.13647,0.40941 0.40941,0.40941 h 3.54822 c 0.27294,0 0.40941,-0.13647 0.40941,-0.40941 v -0.40941 c 0,-0.27294 -0.13647,-0.40941 -0.40941,-0.40941 h -0.95529 V 71.64716 h 0.95529 c 0.27294,0 0.40941,-0.13647 0.40941,-0.40941 v -0.40941 c 0,-0.27294 -0.27294,-0.40941 -0.40941,-0.40941 z m -139.1994,0 h -0.68235 c -0.27294,0 -0.40941,0.13647 -0.40941,0.40941 v 5.04939 h -4.91292 v -5.04939 c 0,-0.27294 -0.13647,-0.40941 -0.40941,-0.40941 h -0.68235 c -0.27294,0 -0.40941,0.13647 -0.40941,0.40941 v 12.2823 c 0,0.27294 0.13647,0.40941 0.40941,0.40941 h 0.68235 c 0.27294,0 0.40941,-0.13647 0.40941,-0.40941 v -5.86821 h 4.77645 v 5.86821 c 0,0.27294 0.13647,0.40941 0.40941,0.40941 h 0.68235 c 0.27294,0 0.40941,-0.13647 0.40941,-0.40941 V 70.82834 C 55.04431,70.5554 54.77137,70.41893 54.6349,70.41893 Z m 47.35509,12.96465 h 0.68235 c 0.27294,0 0.40941,-0.13647 0.40941,-0.40941 v -12.2823 c 0,-0.27294 -0.13647,-0.40941 -0.40941,-0.40941 h -0.68235 c -0.27294,0 -0.40941,0.13647 -0.40941,0.40941 v 5.04939 h -4.912919 v -5.04939 c 0,-0.27294 -0.13647,-0.40941 -0.40941,-0.40941 h -0.68235 c -0.27294,0 -0.40941,0.13647 -0.40941,0.40941 v 12.2823 c 0,0.27294 0.13647,0.40941 0.40941,0.40941 h 0.68235 c 0.27294,0 0.40941,-0.13647 0.40941,-0.40941 v -5.86821 h 4.912919 v 5.86821 c 0,0.27294 0.27294,0.40941 0.40941,0.40941 z M 25.70326,70.41893 h -7.50585 c -0.27294,0 -0.40941,0.13647 -0.40941,0.40941 v 0.68235 c 0,0.27294 0.13647,0.40941 0.40941,0.40941 h 3.00234 v 11.19054 c 0,0.27294 0.13647,0.40941 0.40941,0.40941 h 0.81882 c 0.27294,0 0.40941,-0.13647 0.40941,-0.40941 V 71.9201 h 3.00234 c 0.27294,0 0.40941,-0.13647 0.40941,-0.40941 V 70.82834 C 26.11267,70.5554 25.83973,70.41893 25.70326,70.41893 Z m 64.277371,13.10112 c 1.22823,0 1.91058,-0.27294 2.45646,-0.54588 0.13647,-0.13647 0.27294,-0.27294 0.13647,-0.40941 l -0.40941,-0.68235 c -0.13647,-0.13647 -0.27294,-0.27294 -0.54588,-0.13647 -0.27294,0.13647 -1.09176,0.40941 -1.63764,0.40941 -1.91058,0 -3.27528,-1.50117 -3.27528,-5.18586 0,-3.54822 1.22823,-5.04939 3.41175,-5.04939 0.54588,0 1.09176,0.13647 1.50117,0.40941 0.27294,0.13647 0.40941,0 0.54588,-0.13647 l 0.27294,-0.54588 c 0.13647,-0.27294 0,-0.40941 -0.13647,-0.54588 -0.68235,-0.40941 -1.50117,-0.54588 -2.18352,-0.54588 -3.00234,0 -5.04939,2.45646 -5.04939,6.55056 0,3.95763 1.77411,6.41409 4.91292,6.41409 z M 112.90759,71.78363 c 0.27294,0 0.40941,-0.13647 0.40941,-0.40941 v -0.68235 c 0,-0.27294 -0.13647,-0.40941 -0.40941,-0.40941 h -5.86821 c -0.27294,0 -0.40941,0.13647 -0.40941,0.40941 v 12.2823 c 0,0.27294 0.13647,0.40941 0.40941,0.40941 h 5.86821 c 0.27294,0 0.40941,-0.13647 0.40941,-0.40941 v -0.68235 c 0,-0.27294 -0.13647,-0.40941 -0.40941,-0.40941 h -4.77645 v -4.63998 h 4.36704 c 0.27294,0 0.40941,-0.13647 0.40941,-0.40941 v -0.54588 c 0,-0.27294 -0.13647,-0.40941 -0.40941,-0.40941 h -4.36704 V 71.9201 h 4.77645 z m 34.52691,-0.13647 c 0.27294,0 0.40941,-0.13647 0.40941,-0.40941 v -0.40941 c 0,-0.27294 -0.13647,-0.40941 -0.40941,-0.40941 h -3.54822 c -0.27294,0 -0.40941,0.13647 -0.40941,0.40941 v 0.40941 c 0,0.27294 0.13647,0.40941 0.40941,0.40941 h 0.95529 v 10.50819 h -0.95529 c -0.27294,0 -0.40941,0.13647 -0.40941,0.40941 v 0.40941 c 0,0.27294 0.13647,0.40941 0.40941,0.40941 h 3.54822 c 0.27294,0 0.40941,-0.13647 0.40941,-0.40941 v -0.40941 c 0,-0.27294 -0.13647,-0.40941 -0.40941,-0.40941 h -0.95529 V 71.64716 Z M 73.058351,70.41893 h -3.54822 c -0.27294,0 -0.40941,0.13647 -0.40941,0.40941 v 0.40941 c 0,0.27294 0.13647,0.40941 0.40941,0.40941 h 0.95529 v 10.50819 h -0.95529 c -0.27294,0 -0.40941,0.13647 -0.40941,0.40941 v 0.40941 c 0,0.27294 0.13647,0.40941 0.40941,0.40941 h 3.54822 c 0.27294,0 0.40941,-0.13647 0.40941,-0.40941 v -0.40941 c 0,-0.27294 -0.13647,-0.40941 -0.40941,-0.40941 h -0.95529 V 71.64716 h 0.95529 c 0.27294,0 0.40941,-0.13647 0.40941,-0.40941 v -0.40941 c 0,-0.27294 -0.13647,-0.40941 -0.40941,-0.40941 z m -6.68703,0 h -0.68235 c -0.27294,0 -0.40941,0.13647 -0.40941,0.40941 v 8.73408 c 0,0.95529 0.13647,2.04705 0.27294,2.86587 -0.27294,-0.68235 -0.40941,-1.50117 -0.81882,-2.45646 l -4.0941,-9.27996 C 60.50311,70.5554 60.36664,70.41893 60.23017,70.41893 H 58.729 c -0.27294,0 -0.40941,0.13647 -0.40941,0.40941 v 12.2823 c 0,0.13647 0.13647,0.40941 0.40941,0.40941 h 0.68235 c 0.27294,0 0.40941,-0.13647 0.40941,-0.40941 v -8.87055 c 0,-0.68235 -0.13647,-2.04705 -0.27294,-2.86587 0.27294,0.81882 0.54588,1.77411 0.81882,2.59293 l 4.094101,9.27996 c 0.13647,0.13647 0.27294,0.27294 0.40941,0.27294 h 1.3647 c 0.27294,0 0.40941,-0.13647 0.40941,-0.40941 v -12.2823 c 0.13647,-0.27294 0,-0.40941 -0.27294,-0.40941 z M 43.99024,81.74594 C 43.85377,81.60947 43.7173,81.473 43.44436,81.60947 c -0.27294,0.13647 -1.09176,0.40941 -1.63764,0.40941 -1.91058,0 -3.27528,-1.50117 -3.27528,-5.18586 0,-3.54822 1.22823,-5.04939 3.41175,-5.04939 0.54588,0 1.09176,0.13647 1.50117,0.40941 0.27294,0.13647 0.40941,0 0.54588,-0.13647 l 0.27294,-0.54588 c 0.13647,-0.27294 0,-0.40941 -0.13647,-0.54588 -0.68235,-0.40941 -1.50117,-0.54588 -2.18352,-0.54588 -3.00234,0 -5.04939,2.45646 -5.04939,6.55056 0,4.23057 1.77411,6.68703 4.91292,6.68703 1.22823,0 1.91058,-0.27294 2.45646,-0.54588 0.13647,-0.13647 0.27294,-0.27294 0.13647,-0.40941 z m -9.5529,-11.32701 h -6.00468 c -0.27294,0 -0.40941,0.13647 -0.40941,0.40941 v 12.2823 c 0,0.27294 0.13647,0.40941 0.40941,0.40941 h 5.86821 c 0.27294,0 0.40941,-0.13647 0.40941,-0.40941 v -0.68235 c 0,-0.27294 -0.13647,-0.40941 -0.40941,-0.40941 H 29.66089 V 77.3789 h 4.36704 c 0.27294,0 0.40941,-0.13647 0.40941,-0.40941 v -0.54588 c 0,-0.27294 -0.13647,-0.40941 -0.40941,-0.40941 h -4.36704 v -3.95763 h 4.77645 c 0.27294,0 0.40941,-0.13647 0.40941,-0.40941 v -0.68235 c 0,-0.40941 -0.27294,-0.54588 -0.40941,-0.54588 z"
       id="path164"
       style="fill:#ffffff;stroke-width:1.3647" />
    <path
       class="st1"
       d="m 87.524171,120.09401 c -0.13647,-0.13647 -0.27294,-0.27294 -0.54588,-0.13647 -0.27294,0.13647 -1.09176,0.40941 -1.63764,0.40941 -1.91058,0 -3.27528,-1.50117 -3.27528,-5.18586 0,-3.54822 1.22823,-5.04939 3.41175,-5.04939 0.54588,0 1.09176,0.13647 1.50117,0.40941 0.27294,0.13647 0.40941,0 0.54588,-0.13647 l 0.27294,-0.54588 c 0.13647,-0.27294 0,-0.40941 -0.13647,-0.54588 -0.68235,-0.40941 -1.50117,-0.54588 -2.18352,-0.54588 -3.00234,0 -5.04939,2.45646 -5.04939,6.55056 0,4.23057 1.77411,6.68703 4.91292,6.68703 1.22823,0 1.91058,-0.27294 2.45646,-0.54588 0.13647,-0.13647 0.27294,-0.27294 0.13647,-0.40941 z"
       id="path166"
       style="fill:#ffffff;stroke-width:1.3647" />
    <path
       class="st1"
       d="m 108.26761,108.63053 h -5.86821 c -0.27294,0 -0.40941,0.13647 -0.40941,0.40941 v 12.2823 c 0,0.27294 0.13647,0.40941 0.40941,0.40941 h 5.86821 c 0.27294,0 0.40941,-0.13647 0.40941,-0.40941 v -0.68235 c 0,-0.27294 -0.13647,-0.40941 -0.40941,-0.40941 h -4.77645 v -4.63998 h 4.36704 c 0.27294,0 0.40941,-0.13647 0.40941,-0.40941 v -0.54588 c 0,-0.27294 -0.13647,-0.40941 -0.40941,-0.40941 h -4.36704 v -3.95763 h 4.77645 c 0.27294,0 0.40941,-0.13647 0.40941,-0.40941 v -0.68235 c 0,-0.40941 -0.27294,-0.54588 -0.40941,-0.54588 z"
       id="path168"
       style="fill:#ffffff;stroke-width:1.3647" />
    <path
       class="st1"
       d="m 98.168831,108.63053 h -0.68235 c -0.27294,0 -0.40941,0.13647 -0.40941,0.40941 v 5.04939 h -4.91292 v -5.04939 c 0,-0.27294 -0.13647,-0.40941 -0.40941,-0.40941 h -0.68235 c -0.27294,0 -0.40941,0.13647 -0.40941,0.40941 v 12.2823 c 0,0.27294 0.13647,0.40941 0.40941,0.40941 h 0.54588 c 0.27294,0 0.40941,-0.13647 0.40941,-0.40941 v -5.86821 h 4.91292 v 5.86821 c 0,0.27294 0.13647,0.40941 0.40941,0.40941 h 0.68235 c 0.27294,0 0.40941,-0.13647 0.40941,-0.40941 v -12.2823 c 0.13647,-0.27294 -0.13647,-0.40941 -0.27294,-0.40941 z"
       id="path170"
       style="fill:#ffffff;stroke-width:1.3647" />
    <path
       class="st1"
       d="m 140.47453,108.63053 h -3.54822 c -0.27294,0 -0.40941,0.13647 -0.40941,0.40941 v 0.40941 c 0,0.27294 0.13647,0.40941 0.40941,0.40941 h 0.95529 v 10.50819 h -0.95529 c -0.27294,0 -0.40941,0.13647 -0.40941,0.40941 v 0.40941 c 0,0.27294 0.13647,0.40941 0.40941,0.40941 h 3.54822 c 0.27294,0 0.40941,-0.13647 0.40941,-0.40941 v -0.40941 c 0,-0.27294 -0.13647,-0.40941 -0.40941,-0.40941 h -1.09176 v -10.50819 h 0.95529 c 0.27294,0 0.40941,-0.13647 0.40941,-0.40941 v -0.40941 c 0,-0.13647 -0.13647,-0.40941 -0.27294,-0.40941 z"
       id="path172"
       style="fill:#ffffff;stroke-width:1.3647" />
    <path
       class="st1"
       d="m 150.43684,108.63053 h -7.50585 c -0.27294,0 -0.40941,0.13647 -0.40941,0.40941 v 0.68235 c 0,0.27294 0.13647,0.40941 0.40941,0.40941 h 3.00234 v 11.19054 c 0,0.27294 0.13647,0.40941 0.40941,0.40941 h 0.81882 c 0.27294,0 0.40941,-0.13647 0.40941,-0.40941 V 110.1317 h 3.00234 c 0.27294,0 0.40941,-0.13647 0.40941,-0.40941 v -0.68235 c -0.13647,-0.27294 -0.27294,-0.40941 -0.54588,-0.40941 z"
       id="path174"
       style="fill:#ffffff;stroke-width:1.3647" />
    <path
       class="st1"
       d="m 121.23226,108.63053 h -1.50117 c -0.13647,0 -0.40941,0.13647 -0.40941,0.27294 l -2.18352,8.05173 c -0.13647,0.68235 -0.27294,1.50117 -0.27294,2.18352 -0.13647,-0.68235 -0.13647,-1.63764 -0.27294,-2.18352 l -2.18352,-8.1882 c 0,-0.13647 -0.13647,-0.27294 -0.40941,-0.27294 h -1.50117 c -0.27294,0 -0.40941,0.13647 -0.40941,0.40941 l -0.95529,12.2823 c 0,0.27294 0.13647,0.40941 0.27294,0.40941 h 0.95529 c 0.13647,0 0.27294,-0.13647 0.27294,-0.40941 l 0.54588,-9.00702 v -2.59293 c 0.13647,0.68235 0.13647,1.77411 0.40941,2.59293 l 2.04705,7.64232 c 0.13647,0.27294 0.13647,0.40941 0.40941,0.40941 h 1.09176 c 0.27294,0 0.27294,-0.13647 0.40941,-0.40941 l 2.04705,-7.64232 c 0.27294,-0.81882 0.27294,-2.04705 0.40941,-2.59293 v 2.59293 l 0.54588,9.00702 c 0,0.13647 0.13647,0.27294 0.40941,0.27294 h 1.09176 c 0.27294,0 0.27294,-0.13647 0.27294,-0.27294 l -0.68235,-12.14583 c 0,-0.27294 -0.27294,-0.40941 -0.40941,-0.40941 z"
       id="path176-6"
       style="fill:#ffffff;stroke-width:1.3647" />
    <path
       class="st1"
       d="m 133.7875,108.63053 h -0.68235 c -0.27294,0 -0.40941,0.13647 -0.40941,0.40941 v 8.73408 c 0,0.95529 0.13647,2.04705 0.27294,2.86587 -0.27294,-0.68235 -0.40941,-1.50117 -0.81882,-2.45646 l -4.0941,-9.27996 c -0.13647,-0.13647 -0.27294,-0.27294 -0.40941,-0.27294 h -1.50117 c -0.27294,0 -0.40941,0.13647 -0.40941,0.40941 v 12.2823 c 0,0.13647 0.13647,0.40941 0.40941,0.40941 h 0.68235 c 0.27294,0 0.40941,-0.13647 0.40941,-0.40941 v -8.87055 c 0,-0.68235 -0.13647,-2.04705 -0.27294,-2.86587 0.27294,0.81882 0.54588,1.77411 0.81882,2.59293 l 4.0941,9.27996 c 0.13647,0.13647 0.27294,0.27294 0.40941,0.27294 h 1.3647 c 0.27294,0 0.40941,-0.13647 0.40941,-0.40941 v -12.2823 c 0.13647,-0.27294 0,-0.40941 -0.27294,-0.40941 z"
       id="path178-0"
       style="fill:#ffffff;stroke-width:1.3647" />
    <path
       class="st1"
       d="m 159.85327,120.23048 h -5.04939 c -0.40941,0 -0.81882,0.13647 -0.95529,0.13647 0.27294,-0.13647 0.54588,-0.40941 0.68235,-0.81882 l 5.32233,-9.14349 c 0.13647,-0.13647 0.27294,-0.40941 0.27294,-0.68235 v -0.68235 c 0,-0.27294 -0.13647,-0.40941 -0.40941,-0.40941 h -6.68703 c -0.27294,0 -0.40941,0.13647 -0.40941,0.40941 v 0.68235 c 0,0.27294 0.13647,0.40941 0.40941,0.40941 h 4.50351 c 0.40941,0 0.81882,0 1.09176,-0.13647 -0.27294,0.13647 -0.54588,0.54588 -0.68235,0.81882 l -5.32233,9.14349 c -0.13647,0.13647 -0.13647,0.27294 -0.13647,0.54588 v 0.81882 c 0,0.27294 0.13647,0.40941 0.40941,0.40941 h 6.95997 c 0.27294,0 0.40941,-0.13647 0.40941,-0.40941 v -0.68235 c 0,-0.27294 -0.27294,-0.40941 -0.40941,-0.40941 z"
       id="path180-6"
       style="fill:#ffffff;stroke-width:1.3647" />
    <path
       class="st1"
       d="m 21.8821,100.30586 h -2.31999 c -0.13647,0 -0.27294,-0.13647 -0.27294,-0.27294 v -0.27294 c 0,-0.13647 0.13647,-0.27294 0.27294,-0.27294 h 0.68235 v -6.95997 h -0.68235 c -0.13647,0 -0.27294,-0.13647 -0.27294,-0.27294 v -0.27294 c 0,-0.13647 0.13647,-0.27294 0.27294,-0.27294 h 2.31999 c 0.13647,0 0.27294,0.13647 0.27294,0.27294 v 0.27294 c 0,0.13647 -0.13647,0.27294 -0.27294,0.27294 h -0.68235 v 6.95997 h 0.68235 c 0.13647,0 0.27294,0.13647 0.27294,0.27294 v 0.27294 c 0,0.13647 -0.13647,0.27294 -0.27294,0.27294 z"
       id="path182-2"
       style="fill:#ffffff;stroke-width:1.3647" />
    <path
       class="st1"
       d="m 29.38795,100.30586 h -0.95529 c -0.13647,0 -0.27294,-0.13647 -0.27294,-0.13647 l -2.7294,-6.00468 c -0.27294,-0.54588 -0.40941,-1.09176 -0.54588,-1.63764 0,0.54588 0.13647,1.3647 0.13647,1.77411 v 5.86821 c 0,0.13647 -0.13647,0.27294 -0.27294,0.27294 h -0.40941 c -0.13647,0 -0.27294,-0.13647 -0.27294,-0.27294 v -8.05173 c 0,-0.13647 0.13647,-0.27294 0.27294,-0.27294 h 0.95529 c 0.13647,0 0.27294,0 0.27294,0.13647 l 2.59293,6.00468 c 0.27294,0.54588 0.40941,1.09176 0.54588,1.63764 0,-0.54588 -0.13647,-1.22823 -0.13647,-1.77411 v -5.86821 c 0,-0.13647 0.13647,-0.27294 0.27294,-0.27294 h 0.40941 c 0.13647,0 0.27294,0.13647 0.27294,0.27294 v 8.05173 c 0.13647,0.27294 0,0.27294 -0.13647,0.27294 z"
       id="path184"
       style="fill:#ffffff;stroke-width:1.3647" />
    <path
       class="st1"
       d="M 37.30321,100.30586 H 35.5291 c -0.13647,0 -0.27294,-0.13647 -0.27294,-0.27294 v -8.05173 c 0,-0.13647 0.13647,-0.27294 0.27294,-0.27294 h 1.77411 c 2.31999,0 3.27528,1.3647 3.27528,4.23057 0,3.00234 -0.81882,4.36704 -3.27528,4.36704 z m 1.50117,-6.95997 c -0.40941,-0.40941 -0.95529,-0.54588 -1.50117,-0.54588 h -0.95529 v 6.68703 h 0.95529 c 1.22823,0 2.18352,-0.40941 2.18352,-3.27528 0,-1.63764 -0.27294,-2.45646 -0.68235,-2.86587 z"
       id="path186-6"
       style="fill:#ffffff;stroke-width:1.3647" />
    <path
       class="st1"
       d="m 46.99258,100.30586 h -3.95763 c -0.13647,0 -0.27294,-0.13647 -0.27294,-0.27294 v -8.05173 c 0,-0.13647 0.13647,-0.27294 0.27294,-0.27294 h 3.82116 c 0.13647,0 0.27294,0.13647 0.27294,0.27294 v 0.40941 c 0,0.13647 -0.13647,0.27294 -0.27294,0.27294 h -3.00234 v 2.59293 h 2.7294 c 0.13647,0 0.27294,0.13647 0.27294,0.27294 v 0.40941 c 0,0.13647 -0.13647,0.27294 -0.27294,0.27294 h -2.7294 v 3.13881 h 3.27528 c 0.13647,0 0.27294,0.13647 0.27294,0.27294 v 0.40941 c -0.13647,0.27294 -0.27294,0.27294 -0.40941,0.27294 z"
       id="path188-1"
       style="fill:#ffffff;stroke-width:1.3647" />
    <path
       class="st1"
       d="m 54.90784,100.30586 h -0.81882 c -0.13647,0 -0.13647,0 -0.27294,-0.13647 -0.40941,-1.09176 -0.54588,-2.04705 -0.95529,-2.7294 -0.27294,-0.54588 -0.68235,-1.09176 -1.63764,-1.09176 H 50.5408 v 3.68469 c 0,0.13647 -0.13647,0.27294 -0.27294,0.27294 h -0.54588 c -0.13647,0 -0.27294,-0.13647 -0.27294,-0.27294 v -8.05173 c 0,-0.13647 0.13647,-0.27294 0.27294,-0.27294 h 2.18352 c 2.04705,0 2.59293,1.22823 2.59293,2.04705 0,0.95529 -0.54588,1.91058 -1.91058,2.18352 h -0.13647 c 0.81882,0.13647 1.22823,0.81882 1.50117,1.3647 0.13647,0.27294 0.54588,1.22823 0.95529,2.59293 0.13647,0.27294 0.13647,0.40941 0,0.40941 z M 51.9055,92.66354 h -1.3647 v 2.86587 h 1.22823 c 0.95529,0 1.63764,-0.54588 1.63764,-1.50117 0,-0.68235 -0.40941,-1.3647 -1.50117,-1.3647 z"
       id="path190"
       style="fill:#ffffff;stroke-width:1.3647" />
    <path
       class="st1"
       d="m 64.733681,100.30586 h -0.81882 c -0.13647,0 -0.27294,0 -0.27294,-0.13647 l -2.7294,-4.50351 v 4.50351 c 0,0.13647 -0.13647,0.27294 -0.27294,0.27294 H 60.0937 c -0.13647,0 -0.27294,-0.13647 -0.27294,-0.27294 v -8.05173 c 0,-0.13647 0.13647,-0.27294 0.27294,-0.27294 h 0.545881 c 0.13647,0 0.27294,0.13647 0.27294,0.27294 v 3.41175 l 2.59293,-3.68469 c 0,-0.13647 0.13647,-0.13647 0.27294,-0.13647 h 0.81882 c 0.27294,0 0.13647,0.13647 0.13647,0.27294 l -2.86587,3.54822 3.00234,4.50351 c 0.13647,0.27294 0,0.27294 -0.13647,0.27294 z"
       id="path192-8"
       style="fill:#ffffff;stroke-width:1.3647" />
    <path
       class="st1"
       d="m 69.100721,100.44233 c -1.91058,0 -2.59293,-0.95529 -2.59293,-2.59293 v -5.73174 c 0,-0.13647 0.13647,-0.27294 0.27294,-0.27294 h 0.54588 c 0.13647,0 0.27294,0.13647 0.27294,0.27294 v 5.4588 c 0,1.22823 0.40941,2.04705 1.63764,2.04705 0.95529,0 1.63764,-0.27294 1.63764,-1.77411 v -5.59527 c 0,-0.13647 0.13647,-0.27294 0.27294,-0.27294 h 0.54588 c 0.13647,0 0.27294,0.13647 0.27294,0.27294 v 5.73174 c -0.13647,1.50117 -1.09176,2.45646 -2.86587,2.45646 z"
       id="path194-7"
       style="fill:#ffffff;stroke-width:1.3647" />
    <path
       class="st1"
       d="m 78.380681,100.30586 h -3.54822 c -0.13647,0 -0.27294,-0.13647 -0.27294,-0.27294 v -8.05173 c 0,-0.13647 0.13647,-0.27294 0.27294,-0.27294 h 0.40941 c 0.13647,0 0.27294,0.13647 0.27294,0.27294 v 7.36938 h 2.86587 c 0.13647,0 0.27294,0.13647 0.27294,0.27294 v 0.40941 c 0,0.27294 -0.13647,0.27294 -0.27294,0.27294 z"
       id="path196-9"
       style="fill:#ffffff;stroke-width:1.3647" />
    <path
       class="st1"
       d="m 84.385361,92.66354 h -1.91058 v 7.36938 c 0,0.13647 -0.13647,0.27294 -0.27294,0.27294 h -0.54588 c -0.13647,0 -0.27294,-0.13647 -0.27294,-0.27294 v -7.36938 h -1.91058 c -0.13647,0 -0.27294,-0.13647 -0.27294,-0.27294 v -0.40941 c 0,-0.13647 0.13647,-0.27294 0.27294,-0.27294 h 4.91292 c 0.13647,0 0.27294,0.13647 0.27294,0.27294 v 0.40941 c 0,0.27294 -0.13647,0.27294 -0.27294,0.27294 z"
       id="path198-2"
       style="fill:#ffffff;stroke-width:1.3647" />
    <path
       class="st1"
       d="m 88.752401,100.44233 c -1.91058,0 -2.59293,-0.95529 -2.59293,-2.59293 v -5.73174 c 0,-0.13647 0.13647,-0.27294 0.27294,-0.27294 h 0.54588 c 0.13647,0 0.27294,0.13647 0.27294,0.27294 v 5.4588 c 0,1.22823 0.40941,2.04705 1.63764,2.04705 0.95529,0 1.63764,-0.27294 1.63764,-1.77411 v -5.59527 c 0,-0.13647 0.13647,-0.27294 0.27294,-0.27294 h 0.54588 c 0.13647,0 0.27294,0.13647 0.27294,0.27294 v 5.73174 c -0.13647,1.50117 -1.09176,2.45646 -2.86587,2.45646 z"
       id="path200-0"
       style="fill:#ffffff;stroke-width:1.3647" />
    <path
       class="st1"
       d="m 99.397061,100.30586 h -0.81882 c -0.13647,0 -0.13647,0 -0.27294,-0.13647 -0.40941,-1.09176 -0.54588,-2.04705 -0.95529,-2.7294 -0.27294,-0.54588 -0.68235,-1.09176 -1.63764,-1.09176 h -0.68235 v 3.68469 c 0,0.13647 -0.13647,0.27294 -0.27294,0.27294 h -0.40941 c -0.13647,0 -0.27294,-0.13647 -0.27294,-0.27294 v -8.05173 c 0,-0.13647 0.13647,-0.27294 0.27294,-0.27294 h 2.18352 c 2.04705,0 2.59293,1.22823 2.59293,2.04705 0,0.95529 -0.54588,1.91058 -1.91058,2.18352 h -0.13647 c 0.81882,0.13647 1.22823,0.81882 1.50117,1.3647 0.13647,0.27294 0.54588,1.22823 0.95529,2.59293 0.13647,0.27294 0.13647,0.40941 -0.13647,0.40941 z m -2.86587,-7.64232 h -1.3647 v 2.86587 h 1.22823 c 0.95529,0 1.63764,-0.54588 1.63764,-1.50117 0,-0.68235 -0.54588,-1.3647 -1.50117,-1.3647 z"
       id="path202"
       style="fill:#ffffff;stroke-width:1.3647" />
    <path
       class="st1"
       d="m 106.62997,100.30586 h -0.54588 c -0.13647,0 -0.27294,-0.13647 -0.27294,-0.27294 v -3.82116 h -3.27528 v 3.82116 c 0,0.13647 -0.13647,0.27294 -0.27294,0.27294 h -0.54588 c -0.13647,0 -0.27294,-0.13647 -0.27294,-0.27294 v -8.05173 c 0,-0.13647 0.13647,-0.27294 0.27294,-0.27294 h 0.54588 c 0.13647,0 0.27294,0.13647 0.27294,0.27294 v 3.27528 h 3.27528 v -3.27528 c 0,-0.13647 0.13647,-0.27294 0.27294,-0.27294 h 0.54588 c 0.13647,0 0.27294,0.13647 0.27294,0.27294 v 8.05173 c 0,0.27294 -0.13647,0.27294 -0.27294,0.27294 z"
       id="path204-2"
       style="fill:#ffffff;stroke-width:1.3647" />
    <path
       class="st1"
       d="m 114.81817,100.30586 h -0.68235 c -0.13647,0 -0.27294,-0.13647 -0.40941,-0.27294 l -0.54588,-2.18352 h -2.86587 l -0.54588,2.18352 c 0,0.13647 -0.13647,0.27294 -0.27294,0.27294 h -0.68235 c -0.13647,0 -0.27294,-0.13647 -0.13647,-0.27294 l 2.31999,-8.05173 c 0,-0.13647 0.13647,-0.27294 0.40941,-0.27294 h 0.68235 c 0.13647,0 0.27294,0.13647 0.40941,0.27294 l 2.45646,8.05173 c 0,0.13647 0,0.27294 -0.13647,0.27294 z m -2.86587,-6.95997 c -0.13647,-0.27294 -0.13647,-0.68235 -0.13647,-1.09176 0,0.40941 -0.13647,0.68235 -0.13647,1.09176 l -0.95529,3.68469 h 2.45646 z"
       id="path206-3"
       style="fill:#ffffff;stroke-width:1.3647" />
    <path
       class="st1"
       d="m 119.32168,100.44233 c -1.91058,0 -2.59293,-0.95529 -2.59293,-2.59293 v -5.73174 c 0,-0.13647 0.13647,-0.27294 0.27294,-0.27294 h 0.54588 c 0.13647,0 0.27294,0.13647 0.27294,0.27294 v 5.4588 c 0,1.22823 0.40941,2.04705 1.63764,2.04705 0.95529,0 1.63764,-0.27294 1.63764,-1.77411 v -5.59527 c 0,-0.13647 0.13647,-0.27294 0.27294,-0.27294 h 0.54588 c 0.13647,0 0.27294,0.13647 0.27294,0.27294 v 5.73174 c -0.13647,1.50117 -1.09176,2.45646 -2.86587,2.45646 z"
       id="path208"
       style="fill:#ffffff;stroke-width:1.3647" />
    <path
       class="st1"
       d="m 126.69106,96.75764 h -0.95529 v 3.27528 c 0,0.13647 -0.13647,0.27294 -0.27294,0.27294 h -0.54588 c -0.13647,0 -0.27294,-0.13647 -0.27294,-0.27294 v -8.05173 c 0,-0.13647 0.13647,-0.27294 0.27294,-0.27294 h 1.77411 c 1.77411,0 2.7294,0.95529 2.7294,2.45646 0,1.50117 -0.95529,2.59293 -2.7294,2.59293 z m 0.13647,-4.0941 h -1.09176 v 3.13881 h 1.09176 c 0.95529,0 1.50117,-0.68235 1.50117,-1.63764 0,-0.81882 -0.54588,-1.50117 -1.50117,-1.50117 z"
       id="path210-7"
       style="fill:#ffffff;stroke-width:1.3647" />
    <path
       class="st1"
       d="m 135.56161,92.66354 h -1.91058 v 7.36938 c 0,0.13647 -0.13647,0.27294 -0.27294,0.27294 h -0.54588 c -0.13647,0 -0.27294,-0.13647 -0.27294,-0.27294 v -7.36938 h -1.91058 c -0.13647,0 -0.27294,-0.13647 -0.27294,-0.27294 v -0.40941 c 0,-0.13647 0.13647,-0.27294 0.27294,-0.27294 h 4.91292 c 0.13647,0 0.27294,0.13647 0.27294,0.27294 v 0.40941 c 0,0.27294 -0.13647,0.27294 -0.27294,0.27294 z"
       id="path212-5"
       style="fill:#ffffff;stroke-width:1.3647" />
    <path
       class="st1"
       d="m 138.83689,100.44233 c -0.68235,0 -1.50117,-0.13647 -2.04705,-0.40941 -0.13647,0 -0.27294,-0.13647 -0.13647,-0.27294 l 0.13647,-0.54588 c 0,-0.13647 0.13647,-0.27294 0.27294,-0.13647 0.40941,0.13647 1.09176,0.40941 1.77411,0.40941 0.95529,0 1.63764,-0.54588 1.63764,-1.3647 0,-0.81882 -0.54588,-1.09176 -1.22823,-1.50117 l -0.54588,-0.27294 c -0.95529,-0.40941 -1.91058,-0.81882 -1.91058,-2.31999 0,-1.3647 0.95529,-2.31999 2.59293,-2.31999 0.54588,0 1.22823,0.13647 1.50117,0.27294 0.13647,0 0.13647,0.13647 0.13647,0.27294 v 0.54588 c 0,0.13647 -0.13647,0.27294 -0.27294,0.13647 -0.40941,-0.13647 -0.81882,-0.27294 -1.3647,-0.27294 -1.09176,0 -1.50117,0.40941 -1.50117,1.22823 0,0.81882 0.54588,1.09176 1.3647,1.3647 l 0.68235,0.27294 c 0.95529,0.40941 1.77411,0.95529 1.77411,2.31999 0,1.3647 -0.95529,2.59293 -2.86587,2.59293 z"
       id="path214"
       style="fill:#ffffff;stroke-width:1.3647" />
    <path
       class="st1"
       d="m 147.98038,92.66354 h -1.91058 v 7.36938 c 0,0.13647 -0.13647,0.27294 -0.27294,0.27294 h -0.54588 c -0.13647,0 -0.27294,-0.13647 -0.27294,-0.27294 v -7.36938 h -1.91058 c -0.13647,0 -0.27294,-0.13647 -0.27294,-0.27294 v -0.40941 c 0,-0.13647 0.13647,-0.27294 0.27294,-0.27294 h 4.91292 c 0.13647,0 0.27294,0.13647 0.27294,0.27294 v 0.40941 c -0.13647,0.27294 -0.13647,0.27294 -0.27294,0.27294 z"
       id="path216"
       style="fill:#ffffff;stroke-width:1.3647" />
    <path
       class="st1"
       d="M 154.94035,100.30586 H 154.258 c -0.13647,0 -0.27294,-0.13647 -0.40941,-0.27294 l -0.54588,-2.18352 h -2.86587 l -0.54588,2.18352 c 0,0.13647 -0.13647,0.27294 -0.27294,0.27294 h -0.68235 c -0.13647,0 -0.27294,-0.13647 -0.13647,-0.27294 l 2.31999,-8.05173 c 0,-0.13647 0.13647,-0.27294 0.40941,-0.27294 h 0.81882 c 0.13647,0 0.27294,0.13647 0.40941,0.27294 l 2.45646,8.05173 c -0.13647,0.13647 -0.13647,0.27294 -0.27294,0.27294 z m -3.00234,-6.95997 c -0.13647,-0.27294 -0.13647,-0.68235 -0.13647,-1.09176 0,0.40941 -0.13647,0.68235 -0.13647,1.09176 l -0.95529,3.68469 h 2.31999 z"
       id="path218"
       style="fill:#ffffff;stroke-width:1.3647" />
    <path
       class="st1"
       d="m 158.89798,100.30586 h -1.77411 c -0.13647,0 -0.27294,-0.13647 -0.27294,-0.27294 v -8.05173 c 0,-0.13647 0.13647,-0.27294 0.27294,-0.27294 h 1.77411 c 2.31999,0 3.27528,1.3647 3.27528,4.23057 0,3.00234 -0.81882,4.36704 -3.27528,4.36704 z m 1.50117,-6.95997 c -0.40941,-0.40941 -0.95529,-0.54588 -1.50117,-0.54588 h -0.95529 v 6.68703 h 0.95529 c 1.22823,0 2.18352,-0.40941 2.18352,-3.27528 0,-1.63764 -0.27294,-2.45646 -0.68235,-2.86587 z"
       id="path220"
       style="fill:#ffffff;stroke-width:1.3647" />
    <path
       class="st1"
       d="m 168.58735,92.66354 h -1.91058 v 7.36938 c 0,0.13647 -0.13647,0.27294 -0.27294,0.27294 h -0.54588 c -0.13647,0 -0.27294,-0.13647 -0.27294,-0.27294 v -7.36938 h -1.91058 c -0.13647,0 -0.27294,-0.13647 -0.27294,-0.27294 v -0.40941 c 0,-0.13647 0.13647,-0.27294 0.27294,-0.27294 h 4.91292 c 0.13647,0 0.27294,0.13647 0.27294,0.27294 v 0.40941 c 0,0.27294 -0.13647,0.27294 -0.27294,0.27294 z"
       id="path222"
       style="fill:#ffffff;stroke-width:1.3647" />
    <path
       class="st1"
       d="m 177.4579,100.30586 h -3.95763 c -0.13647,0 -0.27294,-0.13647 -0.27294,-0.27294 v -8.05173 c 0,-0.13647 0.13647,-0.27294 0.27294,-0.27294 h 3.82116 c 0.13647,0 0.27294,0.13647 0.27294,0.27294 v 0.40941 c 0,0.13647 -0.13647,0.27294 -0.27294,0.27294 h -3.13881 v 2.59293 h 2.86587 c 0.13647,0 0.27294,0.13647 0.27294,0.27294 v 0.40941 c 0,0.13647 -0.13647,0.27294 -0.27294,0.27294 h -2.86587 v 3.13881 h 3.27528 c 0.13647,0 0.27294,0.13647 0.27294,0.27294 v 0.40941 c 0,0.27294 -0.13647,0.27294 -0.27294,0.27294 z"
       id="path224"
       style="fill:#ffffff;stroke-width:1.3647" />
    <path
       class="st1"
       d="m 182.50729,100.44233 c -1.91058,0 -2.59293,-0.95529 -2.59293,-2.59293 v -5.73174 c 0,-0.13647 0.13647,-0.27294 0.27294,-0.27294 h 0.54588 c 0.13647,0 0.27294,0.13647 0.27294,0.27294 v 5.4588 c 0,1.22823 0.40941,2.04705 1.63764,2.04705 0.95529,0 1.63764,-0.27294 1.63764,-1.77411 v -5.59527 c 0,-0.13647 0.13647,-0.27294 0.27294,-0.27294 h 0.54588 c 0.13647,0 0.27294,0.13647 0.27294,0.27294 v 5.73174 c -0.13647,1.50117 -1.09176,2.45646 -2.86587,2.45646 z"
       id="path226"
       style="fill:#ffffff;stroke-width:1.3647" />
    <path
       class="st1"
       d="m 193.15195,100.30586 h -0.81882 c -0.13647,0 -0.13647,0 -0.27294,-0.13647 -0.40941,-1.09176 -0.54588,-2.04705 -0.95529,-2.7294 -0.27294,-0.54588 -0.68235,-1.09176 -1.63764,-1.09176 h -0.68235 v 3.68469 c 0,0.13647 -0.13647,0.27294 -0.27294,0.27294 h -0.54588 c -0.13647,0 -0.27294,-0.13647 -0.27294,-0.27294 v -8.05173 c 0,-0.13647 0.13647,-0.27294 0.27294,-0.27294 h 2.18352 c 2.04705,0 2.59293,1.22823 2.59293,2.04705 0,0.95529 -0.54588,1.91058 -1.91058,2.18352 h -0.13647 c 0.81882,0.13647 1.22823,0.81882 1.50117,1.3647 0.13647,0.27294 0.54588,1.22823 0.95529,2.59293 0.27294,0.27294 0.27294,0.40941 0,0.40941 z m -2.86587,-7.64232 h -1.3647 v 2.86587 h 1.22823 c 0.95529,0 1.63764,-0.54588 1.63764,-1.50117 0,-0.68235 -0.54588,-1.3647 -1.50117,-1.3647 z"
       id="path228"
       style="fill:#ffffff;stroke-width:1.3647" />
    <path
       class="st1"
       d="m 197.79193,100.44233 c -1.91058,0 -2.86587,-1.3647 -2.86587,-4.36704 0,-3.00234 0.95529,-4.36704 2.86587,-4.36704 1.91058,0 2.86587,1.3647 2.86587,4.36704 0,3.00234 -1.09176,4.36704 -2.86587,4.36704 z m -0.13647,-7.91526 c -1.63764,0 -1.77411,1.77411 -1.77411,3.54822 0,2.45646 0.54588,3.41175 1.77411,3.41175 1.3647,0 1.77411,-1.3647 1.77411,-3.41175 0.13647,-1.91058 -0.27294,-3.54822 -1.77411,-3.54822 z"
       id="path230"
       style="fill:#ffffff;stroke-width:1.3647" />
    <path
       class="st1"
       d="m 204.88837,96.75764 h -0.95529 v 3.27528 c 0,0.13647 -0.13647,0.27294 -0.27294,0.27294 h -0.54588 c -0.13647,0 -0.27294,-0.13647 -0.27294,-0.27294 v -8.05173 c 0,-0.13647 0.13647,-0.27294 0.27294,-0.27294 h 1.77411 c 1.77411,0 2.7294,0.95529 2.7294,2.45646 0,1.50117 -0.95529,2.59293 -2.7294,2.59293 z m 0.13647,-4.0941 h -1.09176 v 3.13881 h 1.09176 c 0.95529,0 1.50117,-0.68235 1.50117,-1.63764 0,-0.81882 -0.54588,-1.50117 -1.50117,-1.50117 z"
       id="path232"
       style="fill:#ffffff;stroke-width:1.3647" />
    <path
       class="st1"
       d="m 214.85068,100.30586 h -0.68235 c -0.13647,0 -0.27294,-0.13647 -0.40941,-0.27294 l -0.54588,-2.18352 h -2.86587 l -0.54588,2.18352 c 0,0.13647 -0.13647,0.27294 -0.27294,0.27294 H 208.846 c -0.13647,0 -0.27294,-0.13647 -0.13647,-0.27294 l 2.31999,-8.05173 c 0,-0.13647 0.13647,-0.27294 0.40941,-0.27294 h 0.81882 c 0.13647,0 0.27294,0.13647 0.40941,0.27294 l 2.45646,8.05173 c -0.13647,0.13647 -0.13647,0.27294 -0.27294,0.27294 z m -3.00234,-6.95997 c -0.13647,-0.27294 -0.13647,-0.68235 -0.13647,-1.09176 0,0.40941 -0.13647,0.68235 -0.13647,1.09176 l -0.95529,3.68469 h 2.45646 z"
       id="path234"
       style="fill:#ffffff;stroke-width:1.3647" />
    <path
       class="st1"
       d="m 218.26243,100.44233 c -0.68235,0 -1.50117,-0.13647 -2.04705,-0.40941 -0.13647,0 -0.27294,-0.13647 -0.13647,-0.27294 l 0.13647,-0.54588 c 0,-0.13647 0.13647,-0.27294 0.27294,-0.13647 0.40941,0.13647 1.09176,0.40941 1.77411,0.40941 0.95529,0 1.63764,-0.54588 1.63764,-1.3647 0,-0.81882 -0.54588,-1.09176 -1.22823,-1.50117 l -0.54588,-0.27294 c -0.95529,-0.40941 -1.91058,-0.81882 -1.91058,-2.31999 0,-1.3647 0.95529,-2.31999 2.59293,-2.31999 0.54588,0 1.22823,0.13647 1.50117,0.27294 0.13647,0 0.13647,0.13647 0.13647,0.27294 l -0.13647,0.40941 c 0,0.13647 -0.13647,0.27294 -0.27294,0.13647 -0.40941,-0.13647 -0.81882,-0.27294 -1.3647,-0.27294 -1.09176,0 -1.50117,0.40941 -1.50117,1.22823 0,0.81882 0.54588,1.09176 1.3647,1.3647 l 0.68235,0.27294 c 0.95529,0.40941 1.77411,0.95529 1.77411,2.31999 0.13647,1.50117 -0.81882,2.7294 -2.7294,2.7294 z"
       id="path236"
       style="fill:#ffffff;stroke-width:1.3647" />
  </g>
</svg>
