<?xml version="1.0" encoding="utf-8"?>
<!-- Generator: Adobe Illustrator 22.1.0, SVG Export Plug-In . SVG Version: 6.00 Build 0)  -->
<svg version="1.1" id="Ebene_1" xmlns="http://www.w3.org/2000/svg" xmlns:xlink="http://www.w3.org/1999/xlink" x="0px" y="0px"
	 viewBox="0 0 313 166" style="enable-background:new 0 0 313 166;" xml:space="preserve">
<style type="text/css">
	.st0{fill:#E5004B;}
	.st1{fill:#09497D;}
	.st2{fill:#FFFFFF;}
</style>
<path class="st0" d="M12.7,6.1L12.7,6.1c2,2.6,2.6,7,1.5,11.6c-1.1,4.2-3.5,7.6-6.2,9.1l74.8,18.9L88,25.1L12.7,6.1"/>
<path class="st0" d="M82.3,63.7H4.7c2.5,2,4.3,6.1,4.3,10.9C9,79,7.5,82.8,5.3,85h77.1V63.7"/>
<path class="st1" d="M247.1,102.7h-58.2v18.7h26.4c-15.5,14-35.4,21.6-56.4,21.6c-22.5,0-43.7-8.8-59.6-24.7L86,131.6
	c19.5,19.5,45.4,30.2,72.9,30.2c25.9,0,50.4-9.5,69.5-27v26.1h18.7V102.7"/>
<path class="st2" d="M108.8,21.3c-1.4,0-2.7,0.3-3.8,0.7c-1.3,0.5-2.4,1.1-3.3,1.9c-0.9,0.8-1.7,1.7-2.2,2.8
	c-0.5,1.1-0.8,2.2-0.8,3.4c0,1,0.1,1.9,0.5,2.8c0.3,0.8,0.7,1.6,1.2,2.2s1.1,1.2,1.8,1.7s1.4,0.9,2.1,1.1l3.3,1.4
	c0.6,0.2,1.1,0.4,1.5,0.6s0.8,0.3,1.1,0.5s0.5,0.3,0.6,0.5c0.1,0.1,0.2,0.3,0.1,0.5c0,0.4-0.2,0.8-0.5,1c-0.4,0.3-1,0.4-1.9,0.4
	h-0.2c-0.9,0-1.9-0.2-2.9-0.7c-1.1-0.5-2.1-1.1-3-1.8L102,40l-4.6,5.5l0.3,0.3c1.5,1.4,3.2,2.4,5,3s3.6,1,5.4,1l0,0
	c1.7,0,3.2-0.2,4.5-0.7s2.5-1.1,3.4-1.9s1.7-1.8,2.2-2.9s0.7-2.2,0.7-3.4c0-2-0.5-3.6-1.4-4.8c-0.9-1.2-2.3-2.2-4-2.9l-3.2-1.3
	c-1.2-0.5-2.2-0.9-2.8-1.2c-0.7-0.3-0.8-0.7-0.8-1c0-0.4,0.2-0.7,0.5-0.9c0.4-0.2,1-0.4,1.8-0.4l0,0c0.9,0,1.8,0.2,2.5,0.5
	c0.8,0.3,1.6,0.8,2.5,1.4l0.4,0.3l4.1-5.1l-0.3-0.3c-1.3-1.3-2.7-2.2-4.4-2.8c-1.6-0.6-3.2-0.9-4.8-0.9
	C109,21.3,108.9,21.3,108.8,21.3"/>
<polygon class="st2" points="120.5,21.8 120.5,28.7 127.6,28.7 127.6,49.8 135.6,49.8 135.6,28.7 142.6,28.7 142.6,21.8 "/>
<polygon class="st2" points="261,56.8 261,63.6 268,63.6 268,84.6 276,84.6 276,63.7 283,63.7 283,56.8 "/>
<path class="st2" d="M168.3,21.8h-7.8v15.1c0,2.3-0.3,3.9-0.9,4.7c-0.6,0.8-1.5,1.2-2.7,1.2l0,0c-1.2,0-2.1-0.4-2.6-1.2
	c-0.6-0.9-0.9-2.5-0.9-4.8V21.7h-8v14.2c0,4.6,0.9,8.1,2.8,10.4s4.8,3.4,8.7,3.4h0.1c3.8,0,6.7-1.1,8.6-3.4
	c1.8-2.2,2.8-5.7,2.8-10.4L168.3,21.8"/>
<rect x="198.7" y="21.8" class="st2" width="8" height="28"/>
<polygon class="st2" points="229.8,21.8 211.7,21.8 211.7,49.8 230.2,49.8 230.2,42.8 219.7,42.8 219.7,39 228.3,39 228.3,32.2 
	219.7,32.1 219.7,28.9 229.8,28.9 "/>
<polygon class="st2" points="278.4,21.8 260.2,21.8 260.2,49.8 278.7,49.8 278.7,42.9 268.2,42.9 268.2,39.1 276.9,39.1 276.9,32.3 
	268.2,32.3 268.2,29 278.4,29 "/>
<path class="st2" d="M297.8,21.8v8.6c0,0.8,0,1.7,0.1,2.6c0.1,0.9,0.1,1.8,0.2,2.7c0.1,0.7,0.1,1.4,0.2,2.1l-1.4-3.4l-6-12.6h-8v28
	h7.6v-8.2c0-1.6-0.1-3.4-0.3-5.2c-0.1-0.8-0.2-1.5-0.3-2.3l1.5,3.5l6,12.2h8v-28H297.8z"/>
<polygon class="st2" points="236.7,56.8 236.7,84.6 244.7,84.6 244.7,77.4 246.7,74.5 252.5,84.6 261.3,84.6 251.4,68.1 259.8,56.8 
	250.9,56.8 244.7,65.9 244.7,56.8 "/>
<path class="st2" d="M192.7,72.3l0.4-1.5c0.3-1.1,0.6-2.2,1-3.5c0.3-1.3,0.7-2.4,1-3.6l0,0c0.3,1.1,0.7,2.3,1,3.6
	c0.3,1.3,0.6,2.4,1,3.5l0.4,1.5H195H192.7 M199.9,56.7h-9.2l-8.6,27.9h8.2l1.4-6.1h6.7l1.4,6.1h8.5L199.9,57V56.7"/>
<path class="st2" d="M180.2,56.8H172L167.7,68l-1.1,3.2l-1.1-3.2l-4.3-11.2H153v27.9h7.4v-8.8c0-0.7,0-1.5-0.1-2.3s-0.1-1.7-0.2-2.5
	c0-0.3-0.1-0.6-0.1-0.9l0.9,2.6l3.8,9.3h1.8l0,0l0,0h1.8l3.8-9.3l0.9-2.6c0,0.3-0.1,0.6-0.1,0.9c-0.1,0.9-0.2,1.7-0.2,2.5
	c-0.1,0.8-0.1,1.6-0.1,2.3v8.8h7.4L180.2,56.8"/>
<path class="st2" d="M140,56.8h-8.2L127.5,68l-1.1,3.2l-1.1-3.2L121,56.8h-8.2v27.9h7.4v-8.8c0-0.7,0-1.5-0.1-2.3s-0.1-1.7-0.2-2.5
	c0-0.3-0.1-0.6-0.1-0.9l0.9,2.6l3.8,9.3h1.8l0,0l0,0h1.8l3.8-9.3l0.9-2.6c0,0.3-0.1,0.6-0.1,0.9c-0.1,0.9-0.2,1.7-0.2,2.5
	c-0.1,0.8-0.1,1.6-0.1,2.3v8.8h7.4L140,56.8"/>
<rect x="99.9" y="56.8" class="st2" width="7.9" height="27.9"/>
<path class="st2" d="M244.4,33.9h-2.1v-2.8v-2.8h2.1l0,0c1.3,0,2.3,0.2,2.9,0.7s0.9,1.1,0.9,2.1l0,0l0,0c0,0.9-0.3,1.6-0.9,2.1
	C246.7,33.7,245.7,33.9,244.4,33.9L244.4,33.9 M234.4,21.8v28h8v-9.3h1.9l4.8,9.3h9l-6.1-11c1.2-0.7,2.2-1.7,2.9-2.9
	c0.8-1.3,1.2-3,1.3-5c0-1.7-0.3-3.2-0.9-4.4c-0.6-1.2-1.4-2.1-2.5-2.8c-1-0.7-2.2-1.2-3.6-1.5c-1.3-0.3-2.7-0.4-4.2-0.4L234.4,21.8"
	/>
<path class="st2" d="M220.3,68.8h-2.1V66v-2.8h2.1l0,0c1.3,0,2.3,0.2,2.9,0.7s0.9,1.1,0.9,2.1l0,0l0,0c0,0.9-0.3,1.6-0.9,2.1
	C222.6,68.6,221.6,68.8,220.3,68.8L220.3,68.8 M210.3,56.7v28h8v-9.3h1.9l4.8,9.3h9l-6.1-11c1.2-0.7,2.2-1.7,2.9-2.9
	c0.8-1.3,1.2-3,1.3-5c0-1.7-0.3-3.2-0.9-4.4c-0.6-1.2-1.4-2.1-2.5-2.8c-1-0.7-2.2-1.2-3.6-1.5c-1.3-0.3-2.7-0.4-4.2-0.4L210.3,56.7"
	/>
<path class="st2" d="M180.5,43.1V28.6h1.9c2.5,0,4.5,2.7,4.5,6v2.5c0,3.3-2,6-4.5,6H180.5 M172.6,21.9v27.8h8.7h0.1
	c1.9,0,3.7-0.3,5.4-0.8c1.7-0.5,3.2-1.4,4.4-2.5c1.2-1.1,2.2-2.6,2.9-4.3c0.7-1.7,1-3.8,1-6.2c0-2.4-0.3-4.7-1-6.4
	c-0.7-1.7-1.7-3.2-2.9-4.3c-1.2-1.1-2.8-1.9-4.5-2.4S183.1,22,181,22L172.6,21.9"/>
</svg>
