<svg id="Ebene_1" data-name="Ebene 1" xmlns="http://www.w3.org/2000/svg" viewBox="0 0 269.29 44.31"><defs><style>.cls-1{fill:#fff;}.cls-2{fill:#009fe3;}</style></defs><path class="cls-1" d="M330.31,436a3.37,3.37,0,0,0-3.42-3.47,3.48,3.48,0,1,0,3.42,3.47Zm-.79,0a2.64,2.64,0,0,1-2.63,2.77,2.68,2.68,0,0,1-2.66-2.79,2.65,2.65,0,1,1,5.29,0Zm7.72-3.38H332.4v6.73h.76v-2.93h3.64v-.69h-3.64v-2.41h4.08v-.7Zm11,1.28v5.45H349v-6.73h-.77l-2.45,3.68-2.46-3.68h-.77v6.73h.75v-5.44l2.45,3.6h0l2.45-3.61Zm6.35-1.33h-.71l-3.07,6.78h.78l.79-1.78h3.67l.79,1.78h.82l-3.07-6.78Zm1.16,4.32h-3.07l1.54-3.43,1.53,3.43Zm8.67,1.13-4.24-5.4h-.72v6.73h.74V433.8l4.35,5.52h.61v-6.73h-.74V438Zm6.33-5.45H370L367,439.32h.77l.8-1.78h3.67l.79,1.78h.81l-3.06-6.78Zm1.16,4.32h-3.07l1.54-3.43,1.53,3.43Zm9.54,1.55v-2.68h-2.78v.68h2.05v1.67a3.13,3.13,0,0,1-1.94.68,2.8,2.8,0,0,1-.11-5.58,2.88,2.88,0,0,1,2.05.77l.49-.58a3.54,3.54,0,0,0-2.51-.89,3.38,3.38,0,0,0-3.38,3.49,3.31,3.31,0,0,0,3.43,3.47,4.06,4.06,0,0,0,2.7-1Zm7.06-5.82h-4.87v6.73h4.92v-.69H384.4v-2.35h3.68v-.7H384.4v-2.3h4.11v-.69Zm7.74,1.28v5.45H397v-6.73h-.77l-2.45,3.68-2.45-3.68h-.77v6.73h.74v-5.44l2.45,3.6h0l2.45-3.61Zm8-1.28H399.4v6.73h4.91v-.69h-4.15v-2.35h3.67v-.7h-3.67v-2.3h4.1v-.69Zm7,5.4-4.25-5.4h-.71v6.73h.74V433.8l4.35,5.52H412v-6.73h-.74V438Zm5.67-4.7h2.26v-.7h-5.29v.7h2.26v6H417v-6Z" transform="translate(-162 -398.89)"/><path class="cls-1" d="M329.57,424.28V421.6h-2.78v.68h2V424a3.13,3.13,0,0,1-1.94.68,2.8,2.8,0,0,1-.11-5.58,2.84,2.84,0,0,1,2,.77l.49-.58a3.54,3.54,0,0,0-2.51-.9,3.39,3.39,0,0,0-3.38,3.5,3.31,3.31,0,0,0,3.43,3.47,4.06,4.06,0,0,0,2.7-1Zm7.76.91-2.07-2.75a2,2,0,0,0,1.83-2c0-1.21-.95-2-2.43-2h-2.9v6.73h.76v-2.61h1.93l1.95,2.61Zm-1-4.69c0,.87-.72,1.39-1.73,1.39h-2.07v-2.73h2.08c1.09,0,1.72.5,1.72,1.34Zm6.08-2.09h-.71l-3.07,6.78h.78l.8-1.78h3.66l.79,1.78h.82l-3.07-6.78Zm1.16,4.32H340.5L342,419.3l1.52,3.43Zm9.63-.91a3.36,3.36,0,0,0-3.58-3.36h-2.33v6.73h2.33a3.37,3.37,0,0,0,3.58-3.37Zm-.79,0a2.6,2.6,0,0,1-2.79,2.65H348v-5.33h1.57a2.62,2.62,0,0,1,2.79,2.68Zm8.38-3.38H360v3.91c0,1.48-.79,2.23-2,2.23a2,2,0,0,1-2.06-2.27v-3.87h-.76v3.91a2.81,2.81,0,1,0,5.61-.05v-3.86Zm5.48,0h-.71l-3.07,6.78h.78l.8-1.78h3.67l.78,1.78h.82l-3.07-6.78Zm1.17,4.32h-3.07l1.54-3.43,1.53,3.43Zm5.54-3.57h2.26v-.7h-5.29v.7h2.26v6H373v-6Zm9-.7h-4.87v6.73h4.92v-.69h-4.16v-2.36h3.68v-.69h-3.68v-2.3H382v-.69Zm6,1.68c0-.61.56-1.09,1.43-1.09a3,3,0,0,1,1.95.73l.44-.59a3.51,3.51,0,0,0-2.37-.83,2,2,0,0,0-2.21,1.85c0,1.12.71,1.62,2.26,2s1.75.66,1.75,1.29-.6,1.16-1.5,1.16a3.2,3.2,0,0,1-2.31-1l-.47.56a4,4,0,0,0,2.75,1.08c1.34,0,2.3-.75,2.3-1.92s-.69-1.58-2.19-1.91-1.83-.67-1.83-1.32Zm11.82,4-.5-.5a2.91,2.91,0,0,1-2.17,1,2.67,2.67,0,0,1-2.61-2.79,2.64,2.64,0,0,1,2.61-2.77,2.9,2.9,0,0,1,2.11.92l.52-.56a3.51,3.51,0,0,0-2.62-1.07,3.49,3.49,0,0,0,0,7,3.5,3.5,0,0,0,2.69-1.18Zm6.45-2v3H407v-6.73h-.76v3H402.4v-3h-.76v6.73h.76v-3Zm9.72-.34a3.44,3.44,0,1,0-3.44,3.49,3.39,3.39,0,0,0,3.44-3.49Zm-.79,0a2.65,2.65,0,1,1-2.65-2.79,2.66,2.66,0,0,1,2.65,2.79Zm9.44,0a3.43,3.43,0,1,0-3.44,3.49,3.38,3.38,0,0,0,3.44-3.49Zm-.78,0a2.65,2.65,0,1,1-2.66-2.79,2.68,2.68,0,0,1,2.66,2.79Zm2.87,3.35h4.55v-.7H427.5v-6h-.76v6.73Z" transform="translate(-162 -398.89)"/><path class="cls-1" d="M323.74,411.06h4.55v-.7H324.5v-6h-.76v6.73Zm10.82-6.73H329.7v6.73h4.91v-.69h-4.15V408h3.67v-.69h-3.67V405h4.1v-.69Zm2.13,0v6.73h.76v-6.73Zm8.25,2.14c0-1.33-1-2.14-2.52-2.14H339.9v6.73h.76v-2.37h1.64c1.43,0,2.64-.75,2.64-2.22Zm-.77,0c0,.9-.73,1.49-1.85,1.49h-1.66v-3h1.7c1.09,0,1.81.5,1.81,1.47Zm6.2-1.49L346,410.55v.51h5.39v-.68h-4.36l4.36-5.54v-.51h-5.25V405Zm3.17-.68v6.73h.76v-6.73Zm9,5.82v-2.69H359.8v.69h2.05v1.67a3.13,3.13,0,0,1-1.94.67,2.6,2.6,0,0,1-2.67-2.8,2.63,2.63,0,0,1,2.56-2.77,2.88,2.88,0,0,1,2.05.76l.49-.57a3.54,3.54,0,0,0-2.51-.9,3.39,3.39,0,0,0-3.38,3.49,3.31,3.31,0,0,0,3.43,3.48,4.08,4.08,0,0,0,2.7-1Z" transform="translate(-162 -398.89)"/><polygon class="cls-2" points="154.6 40.53 154.6 33.53 137.15 33.53 137.15 5.51 129.44 5.51 129.44 40.53 154.6 40.53 154.6 40.53"/><path class="cls-1" d="M245,439.42v-35h-7.7v13.86H223.11V404.4h-7.7v35h7.7V425.36h14.21v14.06Zm38,0v-35h-7.7v13.86H261.13V404.4h-7.7v35h7.7V425.36h14.21v14.06Z" transform="translate(-162 -398.89)"/><path class="cls-1" d="M184.15,443.2a22.16,22.16,0,1,1,22.15-22.15,22.18,22.18,0,0,1-22.15,22.15Zm0-43.77a21.62,21.62,0,1,0,21.61,21.62,21.63,21.63,0,0,0-21.61-21.62Z" transform="translate(-162 -398.89)"/><path class="cls-1" d="M183,431l-1.36.47.09.15a.82.82,0,0,0,1,.35l.13,0,.48-.16A1.53,1.53,0,0,0,183,431Z" transform="translate(-162 -398.89)"/><path class="cls-1" d="M180.93,431.29a3,3,0,0,1,1.4-1.06L182,430a1.78,1.78,0,0,1-1.86,0,18.2,18.2,0,0,1-2.78-2.25l-.57-7.14a3.28,3.28,0,0,1,1.48-3.14c1-.71,3.35-2.25,3.35-2.25l-.11-.25a35.39,35.39,0,0,0-3.6,1.94,4.11,4.11,0,0,0-1.84,3.29,62.5,62.5,0,0,0,.51,6.77c.16,1.47.35,1.63,1.36,2.33l3,2.05Z" transform="translate(-162 -398.89)"/><path class="cls-1" d="M190,429.49l-.32.22,1.69,3a11.35,11.35,0,0,0-7.25,2.47,11.23,11.23,0,0,0-8.12-2.41l-1.12,1.61a12.41,12.41,0,0,1,9.24,1.16,12.41,12.41,0,0,1,9.24-1.16l-1.12-1.61L190,429.49Z" transform="translate(-162 -398.89)"/><path class="cls-1" d="M181.27,409.53a4.42,4.42,0,0,1,1.82-.73,4.71,4.71,0,0,1,2.81.49,5.4,5.4,0,0,1,.95.68l.52-.7a6.51,6.51,0,0,0-3.41-1.39,4.5,4.5,0,0,0-3,1.39l.28.28.05,0Z" transform="translate(-162 -398.89)"/><path class="cls-1" d="M192.17,420.14a4.11,4.11,0,0,0-1.84-3.29,44.77,44.77,0,0,0-4.56-2.56,10.69,10.69,0,0,0,.78-4.28,5.82,5.82,0,0,0-2.65-.64,3.76,3.76,0,0,0-1.43.28c.95,0,1.43.25,1.43.9v3.34c0,.57-.21.79-.53.79a1.94,1.94,0,0,1-1.16-.46,2.32,2.32,0,0,0,1.93,1.18v15.21l-.06-.08-3.19-4.39v-4.59a2.26,2.26,0,0,0-1.55-2.15l.26,7.27,4,4a1.43,1.43,0,0,1,.53,1l0,1.09h.06l.06,0a.43.43,0,0,0,.26-.4h0v-.56a1.5,1.5,0,0,0-.24-.92l3.33-4.1.33-7.38a2.28,2.28,0,0,1,1.54,2.15l-.57,5.64-3,3.22.46.66s2.64-1.65,3.79-2.46a2.64,2.64,0,0,0,1.35-2.32,42.65,42.65,0,0,0,.59-6.15Z" transform="translate(-162 -398.89)"/><path class="cls-1" d="M178.83,437.27v.51h.48l-.52,2.07.57.14.67-2.65-.39-.1-.81,0Zm4.06,2.53a.66.66,0,0,0-.37-.69.63.63,0,0,0,.41-.56c0-.41-.3-.78-.87-.84s-1,.23-1,.65a.66.66,0,0,0,.28.63.65.65,0,0,0-.5.61c-.05.47.36.83,1,.89s1.07-.19,1.12-.69Zm-.53-1.24a.34.34,0,0,1-.42.29.34.34,0,0,1-.35-.37c0-.17.17-.3.42-.28s.37.19.35.36Zm0,1.15c0,.19-.21.32-.5.29s-.45-.2-.43-.39.23-.31.5-.29.45.17.43.39Zm3.79-.65a1.36,1.36,0,0,0-.38-1,1,1,0,0,0-.81-.24,1,1,0,0,0-1,1,.86.86,0,0,0,1,.81.83.83,0,0,0,.54-.22c0,.37-.18.63-.51.65a.89.89,0,0,1-.61-.19l-.29.47a1.33,1.33,0,0,0,.92.26c.77-.05,1.14-.67,1.08-1.56Zm-.63-.35c0,.24-.14.42-.44.44a.42.42,0,0,1-.5-.38.41.41,0,0,1,.44-.44.42.42,0,0,1,.5.38Zm3.8.45a.68.68,0,0,0-.57-.54.65.65,0,0,0,.22-.65.84.84,0,0,0-1.09-.54c-.56.12-.87.52-.78.93a.64.64,0,0,0,.46.51.67.67,0,0,0-.29.74c.1.46.6.68,1.19.55s1-.5.86-1Zm-.89-1c0,.19-.08.35-.31.4a.35.35,0,0,1-.45-.25c0-.16.07-.34.31-.39a.35.35,0,0,1,.45.24Zm.31,1.1c0,.19-.1.37-.38.43s-.49-.05-.53-.24.12-.37.38-.42.49,0,.53.23Z" transform="translate(-162 -398.89)"/><path class="cls-1" d="M169.8,429.56l-2.26,1.5.33.5.89-.6.61.92-.89.59.33.5,2.26-1.5-.33-.5-.91.6-.61-.91.91-.61-.33-.49Zm-1.53-3.4-2.09,2.11.2.51,3,.05-.22-.57h-.66L168,427.2l.47-.46-.23-.58Zm-.64,1.44.27.67h-1l.68-.66Zm0-4.66-2.68.46.1.58,1.65-.28-1.44,1.53.1.55,2.67-.46-.1-.58-1.7.29,1.48-1.59-.08-.5Zm-1.35-3.66h0a1.36,1.36,0,0,0-1.41,1.38l-.05,1.06,2.71.12,0-1a1.37,1.37,0,0,0-1.29-1.51Zm0,.63a.77.77,0,0,1,.77.85l0,.46-1.64-.07,0-.47a.78.78,0,0,1,.86-.77Zm2-3.4-.52-.12-.35,1.43-.55-.13.3-1.25-.52-.12-.3,1.24-.53-.13.34-1.41-.52-.13-.48,2,2.64.64.49-2Zm1.1-2.83-.5-.22-.54,1.24-2-.86-.24.55,2.5,1.08.77-1.79Zm.84-2.89h0c-.4-.26-.73-.11-1.16.28s-.47.39-.62.29h0c-.11-.08-.13-.23,0-.43a1.31,1.31,0,0,1,.61-.44l-.2-.51a1.55,1.55,0,0,0-.84.66.84.84,0,0,0,.16,1.24h0c.46.29.78.08,1.19-.3s.46-.35.59-.27h0c.13.08.13.26,0,.46a1.24,1.24,0,0,1-.72.5l.16.53a1.72,1.72,0,0,0,1-.73.85.85,0,0,0-.16-1.29Zm2.88-2-1.93-1.91-.42.42.76.76-.77.78-.76-.76-.42.43,1.92,1.91.42-.42-.77-.77.78-.78.77.77.42-.43Zm2.25-3.31h0a1.39,1.39,0,0,0-2-.37,1.41,1.41,0,0,0-.43,2h0a1.38,1.38,0,0,0,2,.36,1.41,1.41,0,0,0,.43-2Zm-.52.36a.81.81,0,0,1-.21,1.15.82.82,0,0,1-1.16-.26h0a.82.82,0,0,1,.21-1.16.83.83,0,0,1,1.16.26Zm4-.89-.49-.21a1,1,0,0,1-.54.56.81.81,0,0,1-1.06-.49h0a.81.81,0,0,1,.41-1.08,1.05,1.05,0,0,1,.76,0l.19-.54a1.39,1.39,0,0,0-1.15,0,1.37,1.37,0,0,0-.78,1.84h0a1.37,1.37,0,0,0,1.82.77,1.38,1.38,0,0,0,.84-.87Zm3.37-.3-.46-2.67-.58.1.18,1.06-1.09.18-.18-1.06-.59.1.46,2.68.59-.1-.19-1.08,1.09-.18.18,1.07.59-.1Zm3.1-.91h0c0-.47-.32-.67-.87-.81s-.58-.18-.58-.36h0c0-.13.12-.23.35-.23a1.29,1.29,0,0,1,.7.26l.31-.45a1.56,1.56,0,0,0-1-.34.85.85,0,0,0-1,.82h0c0,.54.36.69.9.83s.55.19.55.34h0c0,.16-.15.25-.39.25a1.19,1.19,0,0,1-.81-.32l-.35.42a1.71,1.71,0,0,0,1.15.43c.58,0,1-.3,1-.84Zm3.29.89-.3-.45a1,1,0,0,1-.76.17.79.79,0,0,1-.61-1h0a.8.8,0,0,1,.93-.68,1,1,0,0,1,.63.43l.45-.36a1.46,1.46,0,0,0-2.62.5h0a1.36,1.36,0,0,0,1.1,1.63,1.38,1.38,0,0,0,1.18-.26Zm3,1.59,1.07-2.5-.54-.23-.43,1-1-.43.42-1-.54-.24-1.08,2.5.55.23.43-1,1,.44-.43,1,.55.24Zm3.54.81.87-1.26-.49-.34-.88,1.28a.57.57,0,0,1-.86.2.58.58,0,0,1-.1-.89l.88-1.26-.49-.34-.88,1.28a1.07,1.07,0,0,0,.27,1.66,1.1,1.1,0,0,0,1.68-.33Zm1.54,3,.38-.38-1-1,1.54-1.54-.43-.42-1.91,1.93,1.38,1.37Zm1.8,2.41.43-.31L198,411l.46-.33.74,1,.43-.31-.73-1,.45-.32.83,1.19.44-.3-1.18-1.68-2.22,1.56,1.19,1.69Zm1.83,4.27.52-.17-.42-1.29,2.06-.67-.18-.56-2.58.83.6,1.86Zm.54,2.93.52-.07-.21-1.46.56-.08.19,1.26.52-.07-.18-1.27.54-.08.21,1.44.53-.08-.29-2-2.69.39.3,2Zm0,1.62h2.72v-.59h-2.72v.59Zm1.43,3.55h0a.93.93,0,0,0,1.08-.9l.15-1.09-2.68-.39-.09.59.81.12-.07.45a1,1,0,0,0,.79,1.22Zm.08-.6a.42.42,0,0,1-.34-.53l.06-.47.83.12-.07.46c0,.29-.21.46-.48.42Zm-2.63,3,.5.16.46-1.42,1.2,2,.43.14.67-2.11-.49-.16-.45,1.38-1.19-2-.44-.14-.69,2.15Zm-.72,1.52,2.44,1.19.26-.53-2.43-1.2-.27.54ZM197.37,432l1,.67.67-1-.42-.29-.34.49-.32-.22a.88.88,0,0,1,.18-.55.82.82,0,0,1,1.18-.19h0a.84.84,0,0,1,.25,1.13,1,1,0,0,1-.63.42l.15.57a1.48,1.48,0,0,0,.92-.66,1.39,1.39,0,0,0-.35-2h0a1.37,1.37,0,0,0-2,.38,1.76,1.76,0,0,0-.31,1.2Z" transform="translate(-162 -398.89)"/></svg>