<?xml version="1.0" encoding="UTF-8"?>
<svg width="464px" height="75px" viewBox="0 0 464 75" version="1.1" xmlns="http://www.w3.org/2000/svg" xmlns:xlink="http://www.w3.org/1999/xlink">
    <!-- Generator: Sketch 63.1 (92452) - https://sketch.com -->
    <title>HHL_L_Grau_CMYK</title>
    <desc>Created with Sketch.</desc>
    <g id="Page-1" stroke="none" stroke-width="1" fill="none" fill-rule="evenodd">
        <g id="HHL_L_Grau_CMYK" fill-rule="nonzero">
            <polyline id="Fill-1" fill="#00A3DA" points="267.369509 69.140625 267.369509 57.1892069 236.590256 57.1892069 236.590256 9.375 223.007752 9.375 223.007752 69.140625 267.369509 69.140625"></polyline>
            <path d="M443.185639,57.0361511 L434.069018,57.0361511 L434.069018,58.2259557 L437.966542,58.2259557 L437.966542,68.4315341 L439.289839,68.4315341 L439.289839,58.2259557 L443.185639,58.2259557 L443.185639,57.0361511 Z M422.204143,57.0361511 L420.97906,57.0361511 L420.97906,68.4315341 L422.254112,68.4315341 L422.254112,59.089114 L429.74418,68.4315341 L430.790067,68.4315341 L430.790067,57.0361511 L429.513292,57.0361511 L429.513292,66.1687051 L422.204143,57.0361511 Z M417.433037,57.0361511 L409.045263,57.0361511 L409.045263,68.4315341 L417.515743,68.4315341 L417.515743,67.2603466 L410.354776,67.2603466 L410.354776,63.271201 L416.685236,63.271201 L416.685236,62.1000135 L410.354776,62.1000135 L410.354776,58.209031 L417.433037,58.209031 L417.433037,57.0361511 Z M395.157536,57.0361511 L393.832516,57.0361511 L393.832516,68.4315341 L395.109291,68.4315341 L395.109291,59.219434 L399.337638,65.3055468 L399.401391,65.3055468 L403.626293,59.2008169 L403.626293,68.4315341 L404.937529,68.4315341 L404.937529,57.0361511 L403.609062,57.0361511 L399.384161,63.2559688 L395.157536,57.0361511 Z M356.397681,64.2629869 L359.047722,58.4527463 L361.682255,64.2629869 L356.397681,64.2629869 Z M358.449826,56.9549127 L353.165252,68.4315341 L354.50578,68.4315341 L355.882491,65.4206346 L362.195721,65.4206346 L363.555202,68.4315341 L364.962929,68.4315341 L359.676632,56.9549127 L358.449826,56.9549127 Z M341.46579,57.0361511 L340.238983,57.0361511 L340.238983,68.4315341 L341.512312,68.4315341 L341.512312,59.089114 L349.005826,68.4315341 L350.048267,68.4315341 L350.048267,57.0361511 L348.771493,57.0361511 L348.771493,66.1687051 L341.46579,57.0361511 Z M301.939181,57.0361511 L293.604822,57.0361511 L293.604822,68.4315341 L294.914334,68.4315341 L294.914334,63.4675272 L301.194826,63.4675272 L301.194826,62.2963398 L294.914334,62.2963398 L294.914334,58.2259557 L301.939181,58.2259557 L301.939181,57.0361511 Z M279.532729,62.7177641 C279.532729,60.1147493 281.422907,58.0313219 284.07467,58.0313219 C286.726433,58.0313219 288.647627,60.1469062 288.647627,62.749921 C288.647627,65.3546283 286.760894,67.4380557 284.109131,67.4380557 C281.457368,67.4380557 279.532729,65.3224715 279.532729,62.7177641 Z M278.173248,62.749921 C278.173248,65.9097576 280.544155,68.6261678 284.07467,68.6261678 C287.603462,68.6261678 290.008831,65.8742158 290.008831,62.7177641 C290.008831,59.5613125 287.639646,56.8398249 284.109131,56.8398249 C280.578616,56.8398249 278.173248,59.5917769 278.173248,62.749921 Z M44.1581486,66.7052173 C44.0961191,66.4208828 44.2873769,66.1263935 44.6991842,66.0417701 C45.1109915,65.9554543 45.4056318,66.1568579 45.4676614,66.4378075 C45.5365831,66.7610687 45.331541,67.0454033 44.931795,67.1266417 C44.532049,67.2095726 44.2270703,67.0234012 44.1581486,66.7052173 Z M44.4286664,68.6329377 C44.3545755,68.279212 44.6423237,68.0067247 45.1006532,67.9102541 C45.5572596,67.8154759 45.9363291,67.9525658 46.01042,68.304599 C46.0793417,68.6261678 45.8363926,68.9308119 45.3401562,69.0357449 C44.8439198,69.137293 44.4993112,68.9545065 44.4286664,68.6329377 Z M43.1811832,66.798303 C43.2862888,67.2857336 43.5757601,67.5277565 43.9755061,67.6665388 C43.5378531,67.9864151 43.3534875,68.358758 43.4706544,68.9105023 C43.6412357,69.7025771 44.5044803,70.0596877 45.5176296,69.8498217 C46.5290559,69.6399558 47.1769201,68.9951257 46.9960006,68.1556619 C46.8788337,67.6140723 46.5445633,67.3838967 46.0293734,67.2417295 C46.3377981,66.9557025 46.5032103,66.6205939 46.3981047,66.1314709 C46.2499229,65.4375592 45.4900609,65.0245972 44.5234338,65.2276933 C43.5550835,65.425712 43.0312784,66.1043914 43.1811832,66.798303 Z M39.7023592,68.1353523 C39.1957845,68.1675091 38.8718524,67.9051767 38.8425607,67.4922146 C38.814992,67.0792526 39.0837867,66.7746085 39.5903614,66.7407591 C40.1021052,66.7086022 40.4294833,66.9844744 40.455329,67.3974365 C40.4828977,67.7968588 40.2089338,68.1031954 39.7023592,68.1353523 Z M39.5903614,68.9832784 C39.9987226,68.9595839 40.3037012,68.8140317 40.5173585,68.6109356 C40.4915129,69.2303787 40.2123799,69.6754976 39.6403296,69.7110394 C39.2457527,69.7381189 38.9511124,69.6314934 38.5927194,69.3843932 L38.1033752,70.1849303 C38.5169055,70.4811121 38.9924654,70.6740533 39.6730674,70.6300492 C40.9998106,70.5454258 41.6476748,69.4842488 41.5477383,67.9914925 C41.4874318,67.0792526 41.2358675,66.5968994 40.8809206,66.2905628 C40.5035742,65.9673015 40.1262278,65.838674 39.4990401,65.8776008 C38.4462607,65.9452995 37.7639357,66.6730604 37.8259652,67.60561 C37.8862717,68.5415444 38.577212,69.0492847 39.5903614,68.9832784 Z M33.4080827,68.9155797 C33.4477127,68.5550842 33.8061057,68.3824525 34.2713273,68.4298416 C34.738272,68.4772307 35.0535889,68.7192535 35.017405,69.0797491 C34.9829441,69.4047028 34.657289,69.6247236 34.1524373,69.5722571 C33.6458627,69.5214831 33.3736218,69.2439184 33.4080827,68.9155797 Z M35.0794345,67.138489 C35.0466967,67.4651352 34.7623946,67.6750011 34.3557564,67.630997 C33.9508413,67.5920702 33.7165074,67.3246604 33.7509683,66.9963217 C33.7819831,66.7102947 34.0542239,66.4885815 34.4712003,66.5292007 C34.8898998,66.5732049 35.1104493,66.852462 35.0794345,67.138489 Z M32.4104407,68.8952701 C32.3242886,69.6958072 33.0341824,70.2966331 34.0628391,70.4015661 C35.0949419,70.5064991 35.9116643,70.0884596 36.0012626,69.2337636 C36.059846,68.6854042 35.8117278,68.3604504 35.3637366,68.072731 C35.7462522,67.8933294 36.0081547,67.6225346 36.0615691,67.1266417 C36.1356599,66.4225753 35.5429331,65.8014397 34.5590755,65.6998917 C33.5769409,65.6000361 32.8670472,66.0891592 32.7912333,66.7932256 C32.739542,67.2891186 32.941138,67.6089949 33.2771314,67.8594801 C32.7619415,68.0321117 32.4673012,68.3316785 32.4104407,68.8952701 Z M29.8310452,65.8217493 L28.9281706,69.3133096 L29.9120283,69.5587173 L31.0733593,65.0753712 L30.3927573,64.904432 L28.9919232,64.9602834 L28.9919232,65.8149795 L29.8310452,65.8217493 Z M24.1553412,57.2544794 L22.2324251,59.975967 C28.6094077,58.4425915 34.1955134,59.6984023 38.1481743,61.9493839 C42.0991121,59.6984023 47.6869409,58.4425915 54.0639234,59.975967 L52.1392843,57.2544794 L48.2813908,51.7895022 L47.7248478,52.1686149 L50.6316216,57.1529314 C45.5038453,57.0310737 40.7120624,59.1652751 38.1481743,61.3316333 C35.3344449,58.9554091 29.8362144,56.6147267 24.1553412,57.2544794 Z M35.0346354,53.0317733 L34.5366759,52.6001941 C34.5366759,52.6001941 33.2013175,53.5496683 31.3283697,52.5409577 C29.4450836,51.5288622 26.5296946,48.7481383 26.5296946,48.7481383 L25.5561753,36.6520738 C25.5561753,34.2606174 25.9972743,32.8609469 28.1114482,31.3377262 C29.7707387,30.1411518 33.8698583,27.5381369 33.8698583,27.5381369 L33.6820466,27.118405 C31.5282427,28.1660423 28.6593759,29.5674053 27.4911527,30.391637 C25.6061435,31.7202239 24.4620429,33.4363858 24.3104151,35.9666245 C24.1639565,38.4020851 24.9565563,45.3530487 25.1908902,47.4246288 C25.4717462,49.9007086 25.7991244,50.1765808 27.5256136,51.3697703 L32.6137598,54.8393284 C33.420144,53.5733628 35.0346354,53.0317733 35.0346354,53.0317733 Z M36.1063682,54.2808142 L33.7750909,55.0678115 L33.9249956,55.3250666 C34.1920673,55.7211039 34.7175955,56.2406914 35.6945609,55.9191226 C35.77899,55.8920431 35.8548039,55.8700411 35.9237256,55.8514239 L36.7438942,55.5704743 C36.6887568,55.171052 36.4837146,54.6446947 36.1063682,54.2808142 Z M32.6396055,17.5728889 L33.1203345,18.0450873 C33.1203345,18.0450873 33.1513493,18.0264702 33.2082097,17.9993907 C33.6751544,17.6879767 34.9364219,16.9331363 36.3355329,16.7706594 C37.9414091,16.581103 39.7643887,16.8045087 41.1858993,17.5999684 C41.9940065,18.0535497 42.5574416,18.5172857 42.814175,18.7491538 L43.7222187,17.5728889 C43.7222187,17.5728889 40.7465233,15.2118969 37.8311343,15.2118969 C34.7847941,15.2118969 32.6396055,17.5728889 32.6396055,17.5728889 Z M48.8051959,30.391637 C47.1476284,29.2238345 42.7297459,26.8899219 40.9498424,26.0639978 C41.856163,24.2513653 42.3058773,21.40802 42.2972621,18.8236223 C41.2686053,18.1364806 39.0700023,17.7319809 37.7311978,17.7319809 C36.8610611,17.7319809 36.0305543,17.9029201 35.2741384,18.2109491 C36.9093063,18.2024868 37.7311978,18.6357585 37.7311978,19.7341698 L37.7311978,25.3887033 C37.7311978,26.3483324 37.3659127,26.7155978 36.8145389,26.7155978 C36.1011991,26.7155978 35.4688423,26.4160311 34.8295933,25.9421402 C35.219001,26.8256082 36.6456807,27.9426366 38.1481743,27.9426366 L38.1481743,53.6918355 L38.0465147,53.5547457 L32.5431151,46.1214289 L32.5431151,38.358081 C32.5431151,35.4876563 29.8741213,34.7125062 29.8741213,34.7125062 L30.3272816,47.0133592 L37.1970545,53.8576973 C37.7604896,54.4500609 38.0602991,54.7919393 38.1068212,55.5535497 L38.2033117,57.4101864 C38.2033117,57.4101864 38.2412186,57.405109 38.296356,57.3864919 L38.4066307,57.3407952 C38.5961655,57.2527869 38.8494528,57.0581532 38.8632372,56.6587309 C38.8632372,56.6502685 38.8632372,56.6451911 38.8632372,56.6401137 L38.8632372,55.6940245 C38.8632372,54.9730334 38.7460702,54.5956131 38.4600451,54.1420319 L44.1977786,47.1944532 L44.7560446,34.7125062 C44.7560446,34.7125062 47.4250383,35.529968 47.4250383,38.358081 L46.4325655,47.8917498 L41.3220197,53.3364174 L42.1094504,54.4669856 C42.1094504,54.4669856 46.653115,51.6777993 48.6466759,50.3018234 C50.3593807,49.1221736 50.6298985,48.5162703 50.967615,46.3685291 C51.2691475,44.4543485 52.1306691,38.4020851 51.9842104,35.9666245 C51.8325826,33.4363858 50.688482,31.7202239 48.8051959,30.391637 Z M13.4414592,51.901205 L9.54393574,54.4432911 L10.114263,55.2844474 L11.6546635,54.2774293 L12.7057198,55.8311143 L11.1635963,56.83644 L11.7339235,57.6792887 L15.629724,55.1372027 L15.0593967,54.2960464 L13.4965966,55.3149118 L12.4455403,53.7612267 L14.0100635,52.7423613 L13.4414592,51.901205 Z M10.1625082,49.7179221 L8.52389423,49.7111522 L9.69384049,48.5873539 L10.1625082,49.7179221 Z M10.8000342,46.1569707 L7.19370495,49.7280769 L7.55382096,50.5895428 L12.671259,50.6673963 L12.2766821,49.7111522 L11.1429197,49.7111522 L10.395119,47.9137519 L11.2066723,47.1369093 L10.8000342,46.1569707 Z M9.69556354,40.7106106 L5.08470019,41.4789908 L5.25528146,42.4606219 L8.09313345,41.9884235 L5.62228964,44.582976 L5.78080961,45.5036783 L10.3916729,44.7336056 L10.2228147,43.7485896 L7.29019536,44.2377127 L9.8420222,41.5551519 L9.69556354,40.7106106 Z M5.81010134,37.6641693 L5.84800829,36.8856343 C5.88591524,36.0580178 6.49414945,35.5282755 7.32121014,35.5655098 L7.33327144,35.5672022 C8.16377822,35.6044365 8.70309071,36.1866453 8.66518376,37.0142619 L8.62727681,37.7961818 L5.81010134,37.6641693 Z M4.91928806,36.8416302 L4.83485894,38.6322607 L9.50775184,38.847204 L9.59218095,37.0565735 C9.65937963,35.6145913 8.68586028,34.5720314 7.37290143,34.5111026 L7.35911709,34.5111026 C6.0444352,34.4501738 4.98820978,35.399648 4.91928806,36.8416302 Z M7.0438002,28.9851966 L6.15470996,28.7736381 L5.32248014,32.1399558 L9.86959089,33.2248274 L10.7104359,29.8246604 L9.81962264,29.613102 L9.22172668,32.0367153 L8.26543776,31.8082322 L8.78579678,29.7028027 L7.89670654,29.4912443 L7.37634752,31.5949813 L6.45451946,31.376653 L7.0438002,28.9851966 Z M10.8276029,26.7629869 L7.39357795,25.30408 L6.98349369,26.2315521 L11.2773171,28.0543395 L12.6126755,25.0231304 L11.752877,24.6592499 L10.8276029,26.7629869 Z M10.9895689,21.0796814 C10.8000342,20.9578237 10.7638503,20.6887214 10.9792306,20.3654601 C11.194611,20.0421989 11.5650653,19.8018685 12.03201,19.6156971 L11.6770631,18.761001 C11.0981206,18.9437875 10.6001612,19.3059755 10.2262608,19.8644898 C9.70245571,20.6514871 9.79722308,21.5112605 10.5071168,21.9699192 L10.5174551,21.9766891 C11.2945475,22.4776594 11.8459213,22.1188563 12.5644303,21.4757187 C13.1606032,20.940899 13.3604762,20.8799702 13.5793027,21.020445 L13.5896409,21.0289073 C13.8205287,21.176152 13.8205287,21.4757187 13.5879179,21.8209821 C13.2932775,22.2593311 12.8694089,22.5030464 12.3473269,22.6621384 L12.6230138,23.5540687 C13.350138,23.3611274 13.9480339,22.9092386 14.3357186,22.3270298 C14.8905385,21.4994133 14.8440163,20.6345624 14.0686469,20.1352846 L14.0565856,20.1285147 C13.3742606,19.6884732 12.7953181,19.9440357 12.0681939,20.5905583 C11.4513445,21.1423027 11.2583636,21.252313 11.0016302,21.0881437 L10.9895689,21.0796814 Z M19.0206728,16.8095861 L15.7038148,13.571896 L14.9784137,14.2878097 L16.2913725,15.5690075 L14.9542911,16.892517 L13.6396092,15.6113192 L12.9142081,16.3272329 L16.231066,19.564923 L16.9564672,18.8490093 L15.6245548,17.5491944 L16.9650824,16.2273774 L18.2952717,17.5271923 L19.0206728,16.8095861 Z M21.6414214,13.7580674 C20.9504811,14.2082638 20.0906826,13.9814731 19.6478605,13.3247958 L19.6409683,13.3129485 C19.1981462,12.6596561 19.3118671,11.8100375 20.0028074,11.3581487 C20.6937477,10.9096448 21.5535462,11.1364354 21.9963682,11.7931128 L22.0032604,11.8032676 C22.4460825,12.4599449 22.3323616,13.3078711 21.6414214,13.7580674 Z M22.8923507,11.2075191 L22.8854585,11.1973643 C22.1497191,10.1091077 20.6920246,9.78923139 19.4876175,10.5762287 C18.2866564,11.3581487 18.0161387,12.822133 18.7518781,13.9103895 L18.7587703,13.9222368 C19.4927866,15.0088008 20.9522041,15.3269847 22.1548882,14.5416798 C23.3575723,13.7580674 23.6280901,12.2957756 22.8923507,11.2075191 Z M28.8489107,10.3071264 L27.9925582,9.9500158 C27.7789009,10.3900573 27.5549053,10.7048563 27.0603919,10.9045674 C26.3177603,11.2007492 25.5527292,10.7996344 25.2477506,10.070181 L25.2443045,10.0566412 C24.9427719,9.32888026 25.2201819,8.52157332 25.9490291,8.23046893 C26.3815129,8.05614478 26.8002124,8.1018414 27.2568188,8.26601074 L27.5773048,7.33515368 C27.0138698,7.10836305 26.4142508,7.03558695 25.5975283,7.36392562 C24.267339,7.89705285 23.7521492,9.2594891 24.2535547,10.4679108 L24.2587238,10.4814506 C24.7652985,11.703412 26.1127182,12.2890057 27.3877701,11.779573 C28.223446,11.4444645 28.5973464,10.9553414 28.8489107,10.3071264 Z M33.6355244,9.97371034 L34.6503968,9.8044636 L33.8664122,5.27372839 L32.8498167,5.4446676 L33.1616875,7.2352981 L31.2904627,7.54840457 L30.9785919,5.7560816 L29.9654426,5.92532834 L30.7494272,10.4560635 L31.7642996,10.2851243 L31.4507057,8.46741436 L33.3202075,8.15430789 L33.6355244,9.97371034 Z M39.9832183,8.2575484 L39.9832183,8.24570113 C39.9832183,7.44347159 39.4473488,7.11005551 38.497952,6.86803268 C37.6898448,6.66324412 37.4899718,6.56508101 37.4899718,6.26382182 L37.4899718,6.25197455 C37.4882488,6.02687638 37.6950139,5.85085977 38.0895908,5.85085977 C38.4824446,5.85085977 38.8925289,6.02010651 39.3077823,6.3010561 L39.8419256,5.53944577 C39.3663658,5.16541048 38.7839772,4.95723699 38.1033752,4.95723699 C37.1470862,4.95723699 36.4664842,5.50898136 36.4664842,6.34336778 L36.4664842,6.35521506 C36.4682073,7.26914745 37.0764415,7.52301756 38.018946,7.75996299 C38.8012076,7.95628921 38.9597276,8.08830167 38.9597276,8.34217177 L38.9597276,8.35571151 C38.9597276,8.62481383 38.7064402,8.79067563 38.2860177,8.79067563 C37.7518744,8.7923681 37.3107753,8.57403981 36.8903528,8.23385386 L36.2838416,8.9480751 C36.8421076,9.44227558 37.5571705,9.68429842 38.2670643,9.68261476 C39.2750445,9.68261476 39.9849382,9.16809586 39.9832183,8.2575484 Z M45.4676614,7.19129395 L46.2550921,6.58539062 C45.9070374,6.09119014 45.4452618,5.71207745 44.5785711,5.54621564 C43.1673988,5.2788058 41.9767761,6.14365663 41.7269348,7.42823938 L41.7234887,7.44008665 C41.4702014,8.73651668 42.2731395,9.9500158 43.6240053,10.2055784 C44.5113725,10.3731326 45.0972071,10.1615742 45.6658113,9.75707451 L45.1488984,8.99546419 C44.7233068,9.25102676 44.3614677,9.39657896 43.8359396,9.29503092 C43.0485089,9.14609379 42.6298094,8.39971567 42.7831602,7.62625807 L42.7848833,7.6144108 C42.9365111,6.83926073 43.6171131,6.31290337 44.3924825,6.46014803 C44.8508119,6.54815634 45.1764671,6.80710385 45.4676614,7.19129395 Z M50.8056489,12.4480977 L52.6613663,8.23216139 L51.7171387,7.82935415 L50.9831223,9.498127 L49.2411258,8.76021122 L49.9734191,7.09143837 L49.0309145,6.6903236 L47.173474,10.9079523 L48.1194247,11.3090671 L48.8637793,9.61490725 L50.6057759,10.3545155 L49.8614213,12.0486754 L50.8056489,12.4480977 Z M56.9138367,13.8240737 L58.4163303,11.6915647 L57.5703161,11.1178183 L56.0436999,13.2824841 C55.6215544,13.8782326 55.0925801,13.9747033 54.5739442,13.62267 C54.0587543,13.2706368 53.969156,12.7392021 54.4050859,12.1248364 L55.9127487,9.98555761 L55.0650115,9.41181117 L53.5418414,11.5713996 C52.7595798,12.6816582 52.9904676,13.6785215 54.0225704,14.3825879 C55.0563962,15.0849619 56.1057295,14.9664891 56.9138367,13.8240737 Z M58.5731272,16.6911134 L61.2111062,14.0847136 L60.482259,13.3704924 L57.1826314,16.6318771 L59.5673231,18.9590197 L60.2289716,18.3057273 L58.5731272,16.6911134 Z M65.722033,20.8833551 L66.4732798,20.3671526 L64.4469811,17.5288848 L60.6166563,20.1674414 L62.6601854,23.0327887 L63.4114322,22.5148937 L61.9537378,20.473778 L62.7566759,19.9203412 L64.0231125,21.694047 L64.7743593,21.176152 L63.5079227,19.4024462 L64.2850151,18.869319 L65.722033,20.8833551 Z M65.9908278,27.7936995 L69.5489118,26.6614388 L69.2318718,25.7001173 L64.7829746,27.1167126 L65.8202465,30.257932 L66.7093367,29.9735975 L65.9908278,27.7936995 Z M70.4621246,34.6583472 L71.3667222,34.5280273 L70.8601476,31.0990883 L66.2303308,31.7591506 L66.7420746,35.2219389 L67.6483952,35.0933114 L67.2831101,32.6240014 L68.2549064,32.4852191 L68.5736694,34.6278828 L69.478267,34.5009478 L69.1629501,32.3565916 L70.1020086,32.2211942 L70.4621246,34.6583472 Z M66.8092732,37.967121 L71.4873353,37.9637361 L71.4873353,36.9550255 L66.8092732,36.956718 L66.8092732,37.967121 Z M69.397284,42.949745 C69.0009841,42.895586 68.7390815,42.558785 68.8131724,42.0561222 L68.9268932,41.2640475 L70.3432346,41.4654511 L70.2312368,42.2372162 C70.158869,42.7381866 69.8676747,43.0140588 69.4110683,42.949745 L69.397284,42.949745 Z M69.2818401,43.9669179 C70.2277908,44.1006228 70.9790375,43.5370312 71.1392806,42.4521596 L71.4080753,40.5938304 L66.7782585,39.940538 L66.6317998,40.9424787 L68.0205725,41.1388049 L67.9102978,41.8987228 C67.7621161,42.9192806 68.198046,43.8145958 69.2697788,43.9652254 L69.2818401,43.9669179 Z M66.521525,45.9132554 L68.5874537,49.2169518 L69.3300853,49.4522047 L70.4965855,45.882791 L69.636787,45.6119962 L68.8752019,47.9459087 L66.8109963,44.6388275 L66.0666417,44.405267 L64.8777419,48.0474568 L65.7358174,48.3182516 L66.521525,45.9132554 Z M63.6354278,50.6132374 L67.8327608,52.6391208 L68.2876442,51.7319583 L64.0885882,49.7043824 L63.6354278,50.6132374 Z M63.8801,57.7622196 C64.4986724,57.6031277 64.9759554,57.3204856 65.4532383,56.6401137 C66.2613455,55.4960058 65.9563669,54.0506386 64.8622345,53.3076454 L64.8518963,53.2991831 C63.7146878,52.524033 62.3052386,52.7609785 61.4730088,53.9372433 C60.9871106,54.62777 60.8854511,55.3504536 60.9457576,55.9665117 L62.6153863,57.1038498 L63.7732713,55.4621564 L63.040978,54.964571 L62.4516972,55.8006499 L61.9020465,55.4283071 C61.8968774,55.1135081 62.0105982,54.7919393 62.2242555,54.4872952 C62.6963694,53.8187706 63.5458296,53.6969129 64.2505542,54.1741887 L64.2608925,54.1809586 C64.9156489,54.6260775 65.120691,55.4773886 64.6933763,56.0815995 C64.3849516,56.5182561 64.0592964,56.6824254 63.6061361,56.8025906 L63.8801,57.7622196 Z M75.3986431,37.4983075 C75.3986431,57.6775962 58.6937402,74.091145 38.1602356,74.091145 C17.6267309,74.091145 0.92182806,57.6775962 0.92182806,37.4983075 C0.92182806,17.3207113 17.6267309,0.903777587 38.1602356,0.903777587 C58.6937402,0.903777587 75.3986431,17.3207113 75.3986431,37.4983075 Z M76.3221942,37.4983075 C76.3221942,16.8197409 59.2020379,0 38.1602356,0 C17.1184332,0 0,16.8197409 0,37.4983075 C0,58.1751817 17.1184332,75 38.1602356,75 C59.2020379,75 76.3221942,58.1751817 76.3221942,37.4983075 Z M129.779606,68.5923185 L143.052207,68.5923185 L143.052207,9.33057273 L129.779606,9.33057273 L129.779606,32.7814009 L105.302056,32.7814009 L105.302056,9.33057273 L92.0294551,9.33057273 L92.0294551,68.5923185 L105.302056,68.5923185 L105.302056,44.8029968 L129.779606,44.8029968 L129.779606,68.5923185 Z M195.28109,68.5923185 L208.557137,68.5923185 L208.557137,9.33057273 L195.28109,9.33057273 L195.28109,32.7814009 L170.805263,32.7814009 L170.805263,9.33057273 L157.530939,9.33057273 L157.530939,68.5923185 L170.805263,68.5923185 L170.805263,44.8029968 L195.28109,44.8029968 L195.28109,68.5923185 Z M278.688437,20.5973282 L286.52656,20.5973282 L286.52656,19.409216 L279.99795,19.409216 L279.99795,9.20194521 L278.688437,9.20194521 L278.688437,20.5973282 Z M284.072947,44.7099111 C286.028601,44.7099111 287.653431,43.9110665 288.730333,42.9683621 L288.730333,38.4274721 L283.941996,38.4274721 L283.941996,39.5834274 L287.474234,39.5834274 L287.474234,42.4149253 C286.676465,43.0496006 285.449659,43.5539559 284.124638,43.5539559 C281.309186,43.5539559 279.532729,41.5365347 279.532729,38.8015074 C279.532729,36.2441892 281.372939,34.1116803 283.941996,34.1116803 C285.582333,34.1116803 286.576529,34.6498849 287.474234,35.4165726 L288.318525,34.4383265 C287.155471,33.4786975 285.945895,32.9235682 283.991964,32.9235682 C280.51314,32.9235682 278.173248,35.6924448 278.173248,38.8336643 C278.173248,42.1035113 280.428711,44.7099111 284.072947,44.7099111 Z M288.947436,20.5973282 L297.41447,20.5973282 L297.41447,19.4261407 L290.256949,19.4261407 L290.256949,15.4386875 L296.583963,15.4386875 L296.583963,14.2658076 L290.256949,14.2658076 L290.256949,10.3748251 L297.333487,10.3748251 L297.333487,9.20194521 L288.947436,9.20194521 L288.947436,20.5973282 Z M300.366043,36.5708354 C300.366043,38.0534368 299.123729,38.9301349 297.383455,38.9301349 L293.820202,38.9301349 L293.820202,34.309699 L297.400686,34.309699 C299.27191,34.309699 300.366043,35.1559327 300.366043,36.5708354 Z M301.692786,36.5217538 C301.692786,34.4704834 300.050726,33.1182019 297.497176,33.1182019 L292.512412,33.1182019 L292.512412,44.5135849 L293.820202,44.5135849 L293.820202,40.0860902 L297.133614,40.0860902 L300.495271,44.5135849 L302.104593,44.5135849 L298.543063,39.8576071 C300.366043,39.5326533 301.692786,38.4274721 301.692786,36.5217538 Z M300.994953,20.5973282 L302.302743,20.5973282 L302.302743,9.20194521 L300.994953,9.20194521 L300.994953,20.5973282 Z M313.888485,12.8813693 C313.888485,14.3944352 312.627217,15.4065307 310.706024,15.4065307 L307.837158,15.4065307 L307.837158,10.3934423 L310.773223,10.3934423 C312.646171,10.3934423 313.888485,11.2379835 313.888485,12.8813693 Z M315.213505,12.8322878 C315.213505,10.5711513 313.488739,9.20194521 310.871436,9.20194521 L306.527645,9.20194521 L306.527645,20.5973282 L307.837158,20.5973282 L307.837158,16.5760256 L310.656056,16.5760256 C313.1269,16.5760256 315.213505,15.3083676 315.213505,12.8322878 Z M312.842598,40.3467302 L307.556302,40.3467302 L310.208065,34.5364896 L312.842598,40.3467302 Z M314.715546,44.5135849 L316.126718,44.5135849 L310.840422,33.038656 L309.611892,33.038656 L304.325596,44.5135849 L305.667846,44.5135849 L307.044558,41.5026854 L313.357788,41.5026854 L314.715546,44.5135849 Z M320.880594,57.0361511 L316.655692,63.2559688 L312.429067,57.0361511 L311.10577,57.0361511 L311.10577,68.4315341 L312.380822,68.4315341 L312.380822,59.219434 L316.604001,65.3055468 L316.672923,65.3055468 L320.896101,59.2008169 L320.896101,68.4315341 L322.205614,68.4315341 L322.205614,57.0361511 L320.880594,57.0361511 Z M317.072669,20.5973282 L326.366763,20.5973282 L326.366763,19.4413729 L318.84568,19.4413729 L326.366763,10.066796 L326.366763,9.20194521 L317.317341,9.20194521 L317.317341,10.3595929 L324.576521,10.3595929 L317.072669,19.7341698 L317.072669,20.5973282 Z M328.074299,38.8336643 C328.074299,41.3723654 326.203074,43.3271652 323.268732,43.3271652 L320.54977,43.3271652 L320.54977,34.309699 L323.268732,34.309699 C326.203074,34.309699 328.074299,36.2932707 328.074299,38.8336643 Z M329.43378,38.8015074 C329.43378,35.577357 326.914691,33.1182019 323.268732,33.1182019 L319.238534,33.1182019 L319.238534,44.5135849 L323.268732,44.5135849 C326.914691,44.5135849 329.43378,42.0256578 329.43378,38.8015074 Z M330.029953,20.5973282 L331.337742,20.5973282 L331.337742,9.20194521 L330.029953,9.20194521 L330.029953,20.5973282 Z M333.839601,64.2629869 L328.555028,64.2629869 L331.208514,58.4527463 L333.839601,64.2629869 Z M337.121998,68.4315341 L331.835702,56.9549127 L330.608895,56.9549127 L325.322599,68.4315341 L326.66485,68.4315341 L328.041561,65.4206346 L334.356514,65.4206346 L335.712549,68.4315341 L337.121998,68.4315341 Z M334.156641,39.6629733 L334.156641,33.1182019 L332.845405,33.1182019 L332.845405,39.7442118 C332.845405,42.9683621 334.804505,44.6929864 337.671649,44.6929864 C340.568084,44.6929864 342.508231,42.9683621 342.508231,39.6477411 L342.508231,33.1182019 L341.200441,33.1182019 L341.200441,39.7442118 C341.200441,42.2372162 339.84096,43.5065668 337.702664,43.5065668 C335.481661,43.5065668 334.156641,42.120436 334.156641,39.6629733 Z M340.948877,20.7936544 C342.907977,20.7936544 344.52936,19.9948098 345.606262,19.050413 L345.606262,14.5095229 L340.819649,14.5095229 L340.819649,15.6654782 L344.350164,15.6654782 L344.350164,18.4969761 C343.554118,19.1350363 342.327311,19.6376991 341.000568,19.6376991 C338.183393,19.6376991 336.408658,17.6185855 336.408658,14.8835582 C336.408658,12.3279325 338.248868,10.1954236 340.819649,10.1954236 C342.458263,10.1954236 343.452458,10.7336282 344.350164,11.4986235 L345.192732,10.5203773 C344.033124,9.5607483 342.823548,9.00731146 340.866171,9.00731146 C337.387347,9.00731146 335.049177,11.7744956 335.049177,14.9157151 C335.049177,18.1889471 337.306364,20.7936544 340.948877,20.7936544 Z M353.961298,40.3467302 L348.673279,40.3467302 L351.323319,34.5364896 L353.961298,40.3467302 Z M355.832523,44.5135849 L357.240249,44.5135849 L351.955676,33.038656 L350.72887,33.038656 L345.44085,44.5135849 L346.784824,44.5135849 L348.161535,41.5026854 L354.473042,41.5026854 L355.832523,44.5135849 Z M363.50868,34.309699 L367.399312,34.309699 L367.399312,33.1182019 L358.286137,33.1182019 L358.286137,34.309699 L362.180214,34.309699 L362.180214,44.5135849 L363.50868,44.5135849 L363.50868,34.309699 Z M373.38344,56.8398249 C369.904616,56.8398249 367.564724,59.6087015 367.564724,62.749921 C367.564724,66.0214605 369.820187,68.6261678 373.464423,68.6261678 C375.420077,68.6261678 377.044907,67.8307081 378.121809,66.8846189 L378.121809,62.3420364 L373.331749,62.3420364 L373.331749,63.4979916 L376.863987,63.4979916 L376.863987,66.331182 C376.069664,66.9658573 374.839412,67.4702126 373.514391,67.4702126 C370.698939,67.4702126 368.922482,65.4527914 368.922482,62.7177641 C368.922482,60.1621384 370.764415,58.0313219 373.331749,58.0313219 C374.973809,58.0313219 375.966282,58.5678341 376.863987,59.3311369 L377.708278,58.3562757 C376.546947,57.3949542 375.337371,56.8398249 373.38344,56.8398249 Z M370.681709,44.5135849 L379.148742,44.5135849 L379.148742,43.3440899 L371.991221,43.3440899 L371.991221,39.3549443 L378.321682,39.3549443 L378.321682,38.1820644 L371.991221,38.1820644 L371.991221,34.2927743 L379.067759,34.2927743 L379.067759,33.1182019 L370.681709,33.1182019 L370.681709,44.5135849 Z M390.288216,57.0361511 L381.902165,57.0361511 L381.902165,68.4315341 L390.370922,68.4315341 L390.370922,67.2603466 L383.208232,67.2603466 L383.208232,63.271201 L389.542138,63.271201 L389.542138,62.1000135 L383.208232,62.1000135 L383.208232,58.209031 L390.288216,58.209031 L390.288216,57.0361511 Z M389.426695,35.968317 C389.426695,34.9257571 390.384707,34.1116803 391.892369,34.1116803 C393.088161,34.1116803 394.165063,34.487408 395.241965,35.3505664 L396.00355,34.3570881 C394.828435,33.4296159 393.617135,32.9574175 391.925107,32.9574175 C389.724781,32.9574175 388.115459,34.2589249 388.115459,36.0834048 C388.115459,37.9705059 389.342265,38.8184321 392.011259,39.3871011 C394.447642,39.8931489 395.028308,40.4922823 395.028308,41.5669991 C395.028308,42.7246468 393.996205,43.521799 392.44202,43.521799 C390.832698,43.521799 389.671367,42.9852868 388.463513,41.9088776 L387.650237,42.8532744 C389.044179,44.0752358 390.551842,44.6794467 392.390329,44.6794467 C394.694037,44.6794467 396.351605,43.4067112 396.351605,41.4383716 C396.351605,39.6782055 395.157536,38.7524259 392.572971,38.198989 C390.021144,37.6607844 389.426695,37.0599585 389.426695,35.968317 Z M400.695396,38.8015074 C400.695396,36.1477186 402.614866,34.1116803 405.183924,34.1116803 C406.758785,34.1116803 407.851194,34.7632802 408.829883,35.6772126 L409.724142,34.7311233 C408.564534,33.6564066 407.308436,32.9235682 405.201154,32.9235682 C401.789529,32.9235682 399.337638,35.577357 399.337638,38.8336643 C399.337638,42.120436 401.803313,44.7099111 405.152909,44.7099111 C407.255022,44.7099111 408.581765,43.9110665 409.793064,42.7077222 L408.929819,41.8784131 C407.82018,42.9192806 406.776016,43.521799 405.183924,43.521799 C402.632097,43.521799 400.695396,41.4536038 400.695396,38.8015074 Z M420.911861,44.5135849 L422.221374,44.5135849 L422.221374,33.1182019 L420.911861,33.1182019 L420.911861,38.1820644 L414.216116,38.1820644 L414.216116,33.1182019 L412.908326,33.1182019 L412.908326,44.5135849 L414.216116,44.5135849 L414.216116,39.3871011 L420.911861,39.3871011 L420.911861,44.5135849 Z M436.290021,38.8336643 C436.290021,41.4383716 434.401566,43.521799 431.749802,43.521799 C429.099762,43.521799 427.176846,41.4062147 427.176846,38.8015074 C427.176846,36.1968001 429.067024,34.1116803 431.718787,34.1116803 C434.370551,34.1116803 436.290021,36.228957 436.290021,38.8336643 Z M437.647779,38.8015074 C437.647779,35.6433633 435.280318,32.9235682 431.749802,32.9235682 C428.219287,32.9235682 425.815642,35.6772126 425.815642,38.8336643 C425.815642,41.9918085 428.188272,44.7099111 431.718787,44.7099111 C435.24758,44.7099111 437.647779,41.9596516 437.647779,38.8015074 Z M451.206405,38.8336643 C451.206405,41.4383716 449.319673,43.521799 446.66274,43.521799 C444.0127,43.521799 442.091507,41.4062147 442.091507,38.8015074 C442.091507,36.1968001 443.981685,34.1116803 446.633449,34.1116803 C449.283489,34.1116803 451.206405,36.228957 451.206405,38.8336643 Z M452.564163,38.8015074 C452.564163,35.6433633 450.193256,32.9235682 446.66274,32.9235682 C443.137394,32.9235682 440.730303,35.6772126 440.730303,38.8336643 C440.730303,41.9918085 443.102933,44.7099111 446.633449,44.7099111 C450.163964,44.7099111 452.564163,41.9596516 452.564163,38.8015074 Z M464,44.5135849 L464,43.3271652 L457.469667,43.3271652 L457.469667,33.1182019 L456.160154,33.1182019 L456.160154,44.5135849 L464,44.5135849 Z" id="Fill-2" fill="#4A4A4A"></path>
        </g>
    </g>
</svg>