<?xml version="1.0" encoding="UTF-8"?>
<svg width="156px" height="45px" viewBox="0 0 156 45" version="1.1" xmlns="http://www.w3.org/2000/svg" xmlns:xlink="http://www.w3.org/1999/xlink">
    <!-- Generator: Sketch 51.2 (57519) - http://www.bohemiancoding.com/sketch -->
    <title>Group 3</title>
    <desc>Created with Sketch.</desc>
    <defs></defs>
    <g id="Symbols" stroke="none" stroke-width="1" fill="none" fill-rule="evenodd">
        <g id="ui/mobil/header-scrolled" transform="translate(-17.000000, -18.000000)">
            <g id="Group-3" transform="translate(17.000000, 18.000000)">
                <polyline id="Fill-1" fill="#009FE3" points="155.162 40.015 155.162 33.013 137.704 33.013 137.704 5 130 5 130 40.015 155.162 40.015"></polyline>
                <path d="M25.628,39.413 C25.593,39.245 25.703,39.071 25.942,39.021 C26.181,38.97 26.353,39.089 26.389,39.255 C26.428,39.446 26.309,39.614 26.078,39.662 C25.845,39.711 25.668,39.601 25.628,39.413 Z M25.785,40.552 C25.742,40.343 25.909,40.182 26.175,40.125 C26.44,40.069 26.66,40.15 26.704,40.358 C26.743,40.548 26.603,40.728 26.314,40.79 C26.026,40.85 25.826,40.742 25.785,40.552 Z M25.062,39.468 C25.123,39.756 25.291,39.899 25.523,39.981 C25.269,40.17 25.161,40.39 25.229,40.716 C25.329,41.184 25.829,41.395 26.417,41.271 C27.004,41.147 27.38,40.766 27.276,40.27 C27.208,39.95 27.014,39.814 26.714,39.73 C26.893,39.561 26.989,39.363 26.928,39.074 C26.842,38.664 26.401,38.42 25.84,38.54 C25.278,38.657 24.975,39.058 25.062,39.468 Z M23.043,40.258 C22.749,40.277 22.56,40.122 22.543,39.878 C22.528,39.634 22.683,39.454 22.977,39.434 C23.275,39.415 23.465,39.578 23.48,39.822 C23.496,40.058 23.337,40.239 23.043,40.258 Z M22.978,40.759 C23.214,40.745 23.391,40.659 23.515,40.539 C23.5,40.905 23.338,41.168 23.006,41.189 C22.778,41.205 22.606,41.142 22.398,40.996 L22.115,41.469 C22.355,41.644 22.63,41.758 23.025,41.732 C23.795,41.682 24.171,41.055 24.113,40.173 C24.078,39.634 23.932,39.349 23.726,39.168 C23.507,38.977 23.289,38.901 22.925,38.924 C22.313,38.964 21.917,39.394 21.953,39.945 C21.989,40.498 22.39,40.798 22.978,40.759 Z M19.39,40.719 C19.412,40.506 19.621,40.404 19.891,40.432 C20.161,40.46 20.345,40.603 20.323,40.816 C20.303,41.008 20.114,41.138 19.821,41.107 C19.527,41.077 19.369,40.913 19.39,40.719 Z M20.359,39.669 C20.34,39.862 20.175,39.986 19.939,39.96 C19.704,39.937 19.568,39.779 19.588,39.585 C19.606,39.416 19.764,39.285 20.007,39.309 C20.25,39.335 20.377,39.5 20.359,39.669 Z M18.81,40.707 C18.76,41.18 19.172,41.535 19.77,41.597 C20.368,41.659 20.842,41.412 20.894,40.907 C20.928,40.583 20.784,40.391 20.524,40.221 C20.746,40.115 20.899,39.955 20.929,39.662 C20.973,39.246 20.628,38.879 20.057,38.819 C19.487,38.76 19.075,39.049 19.031,39.465 C19.001,39.758 19.118,39.947 19.313,40.095 C19.014,40.197 18.843,40.374 18.81,40.707 Z M17.314,38.891 L16.789,40.954 L17.36,41.099 L18.034,38.45 L17.64,38.349 L16.827,38.382 L16.827,38.887 L17.314,38.891 Z M14.02,33.829 L12.903,35.437 C16.604,34.531 19.847,35.273 22.14,36.603 C24.434,35.273 27.676,34.531 31.377,35.437 L30.26,33.829 L28.021,30.6 L27.698,30.824 L29.386,33.769 C26.409,33.697 23.628,34.958 22.14,36.238 C20.507,34.834 17.316,33.451 14.02,33.829 Z M20.333,31.334 L20.044,31.079 C20.044,31.079 19.269,31.64 18.182,31.044 C17.089,30.446 15.398,28.803 15.398,28.803 L14.833,21.656 C14.833,20.243 15.088,19.416 16.315,18.516 C17.278,17.809 19.657,16.271 19.657,16.271 L19.548,16.023 C18.298,16.642 16.634,17.47 15.955,17.957 C14.862,18.742 14.198,19.756 14.109,21.251 C14.024,22.69 14.484,26.797 14.621,28.021 C14.783,29.484 14.973,29.647 15.976,30.352 L18.928,32.402 C19.397,31.654 20.333,31.334 20.333,31.334 Z M20.955,32.072 L19.602,32.537 L19.689,32.689 C19.844,32.923 20.15,33.23 20.716,33.04 C20.766,33.024 20.809,33.011 20.849,33 L21.326,32.834 C21.294,32.598 21.175,32.287 20.955,32.072 Z M18.943,10.383 L19.222,10.662 C19.222,10.662 19.24,10.651 19.273,10.635 C19.544,10.451 20.276,10.005 21.089,9.909 C22.02,9.797 23.078,9.929 23.903,10.399 C24.373,10.667 24.7,10.941 24.848,11.078 L25.375,10.383 C25.375,10.383 23.648,8.988 21.956,8.988 C20.188,8.988 18.943,10.383 18.943,10.383 Z M28.325,17.957 C27.363,17.267 24.799,15.888 23.766,15.4 C24.292,14.329 24.554,12.649 24.549,11.122 C23.951,10.716 22.675,10.477 21.898,10.477 C21.393,10.477 20.911,10.578 20.473,10.76 C21.421,10.755 21.898,11.011 21.898,11.66 L21.898,15.001 C21.898,15.568 21.687,15.785 21.367,15.785 C20.952,15.785 20.585,15.608 20.214,15.328 C20.44,15.85 21.268,16.51 22.14,16.51 L22.14,31.724 L22.081,31.643 L18.887,27.251 L18.887,22.664 C18.887,20.968 17.339,20.51 17.339,20.51 L17.601,27.778 L21.588,31.822 C21.916,32.172 22.09,32.374 22.117,32.824 L22.173,33.921 C22.173,33.921 22.194,33.918 22.226,33.907 L22.291,33.88 C22.4,33.828 22.547,33.713 22.555,33.477 C22.555,33.472 22.555,33.469 22.555,33.466 L22.555,32.907 C22.555,32.481 22.487,32.258 22.321,31.99 L25.651,27.885 L25.976,20.51 C25.976,20.51 27.525,20.993 27.525,22.664 L26.948,28.297 L23.983,31.514 L24.44,32.182 C24.44,32.182 27.076,30.534 28.233,29.721 C29.228,29.024 29.384,28.666 29.581,27.397 C29.755,26.266 30.256,22.69 30.171,21.251 C30.083,19.756 29.419,18.742 28.325,17.957 Z M7.801,30.666 L5.54,32.168 L5.87,32.665 L6.765,32.07 L7.374,32.988 L6.479,33.582 L6.81,34.08 L9.071,32.578 L8.741,32.081 L7.833,32.683 L7.223,31.765 L8.131,31.163 L7.801,30.666 Z M5.898,29.376 L4.947,29.372 L5.626,28.708 L5.898,29.376 Z M6.268,27.272 L4.175,29.382 L4.384,29.891 L7.355,29.937 L7.125,29.372 L6.467,29.372 L6.034,28.31 L6.504,27.851 L6.268,27.272 Z M5.627,24.054 L2.952,24.508 L3.05,25.088 L4.697,24.809 L3.263,26.342 L3.355,26.886 L6.032,26.431 L5.934,25.849 L4.232,26.138 L5.713,24.553 L5.627,24.054 Z M3.372,22.254 L3.394,21.794 C3.417,21.305 3.769,20.992 4.249,21.014 L4.257,21.015 C4.738,21.037 5.052,21.381 5.029,21.87 L5.007,22.332 L3.372,22.254 Z M2.855,21.768 L2.806,22.826 L5.518,22.953 L5.567,21.895 C5.607,21.043 5.042,20.427 4.279,20.391 L4.271,20.391 C3.508,20.355 2.896,20.916 2.855,21.768 Z M4.088,17.126 L3.573,17.001 L3.09,18.99 L5.728,19.631 L6.216,17.622 L5.699,17.497 L5.352,18.929 L4.797,18.794 L5.099,17.55 L4.583,17.425 L4.281,18.668 L3.746,18.539 L4.088,17.126 Z M6.285,15.813 L4.291,14.951 L4.054,15.499 L6.546,16.576 L7.32,14.785 L6.822,14.57 L6.285,15.813 Z M6.378,12.455 C6.268,12.383 6.247,12.224 6.373,12.033 C6.497,11.842 6.712,11.7 6.983,11.59 L6.778,11.085 C6.441,11.193 6.152,11.407 5.935,11.737 C5.631,12.202 5.687,12.71 6.098,12.981 L6.104,12.985 C6.555,13.281 6.875,13.069 7.292,12.689 C7.638,12.373 7.754,12.337 7.881,12.42 L7.887,12.425 C8.021,12.512 8.021,12.689 7.886,12.893 C7.716,13.152 7.469,13.296 7.167,13.39 L7.326,13.917 C7.748,13.803 8.095,13.536 8.321,13.192 C8.642,12.703 8.615,12.192 8.165,11.897 L8.158,11.893 C7.762,11.633 7.427,11.784 7.004,12.166 C6.646,12.492 6.534,12.557 6.385,12.46 L6.378,12.455 Z M11.039,9.932 L9.114,8.019 L8.693,8.442 L9.455,9.199 L8.679,9.981 L7.916,9.224 L7.495,9.647 L9.421,11.56 L9.842,11.137 L9.069,10.369 L9.846,9.588 L10.618,10.356 L11.039,9.932 Z M12.561,8.129 C12.16,8.395 11.661,8.261 11.403,7.873 L11.399,7.866 C11.142,7.48 11.209,6.978 11.609,6.711 C12.01,6.446 12.509,6.58 12.767,6.968 L12.771,6.974 C13.028,7.362 12.961,7.863 12.561,8.129 Z M13.286,6.622 L13.282,6.616 C12.855,5.973 12.009,5.784 11.311,6.249 C10.613,6.711 10.456,7.576 10.883,8.219 L10.887,8.226 C11.314,8.868 12.161,9.056 12.858,8.592 C13.557,8.129 13.714,7.265 13.286,6.622 Z M16.743,6.09 L16.246,5.879 C16.122,6.139 15.992,6.325 15.705,6.443 C15.274,6.618 14.83,6.381 14.654,5.95 L14.651,5.942 C14.476,5.512 14.637,5.035 15.061,4.863 C15.312,4.76 15.554,4.787 15.819,4.884 L16.006,4.334 C15.679,4.2 15.331,4.157 14.856,4.351 C14.085,4.666 13.785,5.471 14.076,6.185 L14.079,6.193 C14.373,6.915 15.155,7.261 15.896,6.96 C16.38,6.762 16.597,6.473 16.743,6.09 Z M19.521,5.893 L20.11,5.793 L19.655,3.116 L19.066,3.217 L19.246,4.275 L18.16,4.46 L17.98,3.401 L17.392,3.501 L17.846,6.178 L18.435,6.077 L18.253,5.003 L19.338,4.818 L19.521,5.893 Z M23.205,4.879 L23.205,4.872 C23.205,4.398 22.895,4.201 22.343,4.058 C21.874,3.937 21.758,3.879 21.758,3.701 L21.758,3.694 C21.757,3.561 21.878,3.457 22.107,3.457 C22.335,3.457 22.572,3.557 22.813,3.723 L23.123,3.273 C22.847,3.052 22.509,2.929 22.114,2.929 C21.559,2.929 21.164,3.255 21.164,3.748 L21.164,3.755 C21.165,4.295 21.518,4.445 22.065,4.585 C22.519,4.701 22.612,4.779 22.612,4.929 L22.612,4.937 C22.612,5.096 22.464,5.194 22.221,5.194 C21.91,5.195 21.654,5.066 21.41,4.865 L21.058,5.287 C21.383,5.579 21.797,5.722 22.209,5.721 C22.795,5.721 23.206,5.417 23.205,4.879 Z M26.388,4.249 L26.845,3.891 C26.644,3.599 26.375,3.375 25.872,3.277 C25.053,3.119 24.363,3.63 24.217,4.389 L24.215,4.396 C24.068,5.162 24.535,5.879 25.318,6.03 C25.834,6.129 26.173,6.004 26.503,5.765 L26.203,5.315 C25.956,5.466 25.746,5.552 25.441,5.492 C24.984,5.404 24.742,4.963 24.83,4.506 L24.832,4.499 C24.92,4.041 25.315,3.73 25.765,3.817 C26.031,3.869 26.219,4.022 26.388,4.249 Z M29.487,7.355 L30.564,4.864 L30.015,4.626 L29.589,5.612 L28.578,5.176 L29.004,4.19 L28.456,3.953 L27.379,6.445 L27.927,6.682 L28.359,5.681 L29.371,6.118 L28.939,7.119 L29.487,7.355 Z M33.031,8.168 L33.904,6.908 L33.412,6.569 L32.526,7.848 C32.282,8.2 31.974,8.257 31.674,8.049 C31.375,7.841 31.323,7.527 31.575,7.164 L32.45,5.9 L31.959,5.561 L31.075,6.837 C30.62,7.493 30.755,8.082 31.354,8.498 C31.954,8.913 32.562,8.843 33.031,8.168 Z M33.995,9.862 L35.525,8.322 L35.102,7.9 L33.188,9.827 L34.571,11.202 L34.955,10.816 L33.995,9.862 Z M38.144,12.339 L38.579,12.034 L37.403,10.357 L35.18,11.916 L36.367,13.609 L36.802,13.303 L35.957,12.097 L36.423,11.77 L37.157,12.818 L37.593,12.512 L36.858,11.464 L37.31,11.149 L38.144,12.339 Z M38.299,16.422 L40.364,15.753 L40.181,15.185 L37.599,16.022 L38.201,17.878 L38.717,17.71 L38.299,16.422 Z M40.894,20.478 L41.419,20.401 L41.125,18.375 L38.439,18.765 L38.735,20.811 L39.261,20.735 L39.049,19.276 L39.613,19.194 L39.798,20.46 L40.324,20.385 L40.14,19.118 L40.685,19.038 L40.894,20.478 Z M38.774,22.433 L41.489,22.431 L41.489,21.835 L38.774,21.836 L38.774,22.433 Z M40.276,25.377 C40.046,25.345 39.894,25.146 39.937,24.849 L40.003,24.381 L40.825,24.5 L40.76,24.956 C40.718,25.252 40.549,25.415 40.284,25.377 L40.276,25.377 Z M40.21,25.978 C40.758,26.057 41.195,25.724 41.287,25.083 L41.443,23.985 L38.756,23.599 L38.672,24.191 L39.478,24.307 L39.413,24.756 C39.327,25.359 39.581,25.888 40.202,25.977 L40.21,25.978 Z M38.608,27.128 L39.806,29.08 L40.238,29.219 L40.914,27.11 L40.416,26.95 L39.974,28.329 L38.775,26.375 L38.344,26.237 L37.653,28.389 L38.151,28.549 L38.608,27.128 Z M36.932,29.905 L39.368,31.102 L39.632,30.566 L37.195,29.368 L36.932,29.905 Z M37.074,34.129 C37.433,34.035 37.71,33.868 37.987,33.466 C38.456,32.79 38.279,31.936 37.645,31.497 L37.638,31.492 C36.978,31.034 36.16,31.174 35.678,31.869 C35.395,32.277 35.336,32.704 35.371,33.068 L36.341,33.74 L37.012,32.77 L36.587,32.476 L36.246,32.97 L35.926,32.75 C35.923,32.564 35.989,32.374 36.113,32.194 C36.387,31.799 36.88,31.727 37.289,32.009 L37.296,32.013 C37.675,32.276 37.794,32.779 37.546,33.136 C37.368,33.394 37.179,33.491 36.915,33.562 L37.074,34.129 Z M43.76,22.156 C43.76,34.079 34.065,43.777 22.148,43.777 C10.23,43.777 0.535,34.079 0.535,22.156 C0.535,10.234 10.23,0.534 22.148,0.534 C34.065,0.534 43.76,10.234 43.76,22.156 Z M44.295,22.156 C44.295,9.938 34.36,0 22.148,0 C9.936,0 0,9.938 0,22.156 C0,34.373 9.936,44.314 22.148,44.314 C34.36,44.314 44.295,34.373 44.295,22.156 Z M75.32,40.528 L83.023,40.528 L83.023,5.513 L75.32,5.513 L75.32,19.369 L61.114,19.369 L61.114,5.513 L53.411,5.513 L53.411,40.528 L61.114,40.528 L61.114,26.472 L75.32,26.472 L75.32,40.528 Z M113.336,40.528 L121.04,40.528 L121.04,5.513 L113.336,5.513 L113.336,19.369 L99.131,19.369 L99.131,5.513 L91.427,5.513 L91.427,40.528 L99.131,40.528 L99.131,26.472 L113.336,26.472 L113.336,40.528 Z" id="Fill-2" fill="#FFFFFF"></path>
            </g>
        </g>
    </g>
</svg>