<?xml version="1.0" encoding="UTF-8"?><svg xmlns="http://www.w3.org/2000/svg" viewBox="0 0 260.79 79.37"><defs><style>.d{fill:#0e0e09;}</style></defs><g id="a"><g><path class="d" d="M39.69,79.37C17.8,79.37,0,61.57,0,39.68S17.8,0,39.69,0s39.68,17.8,39.68,39.68-17.8,39.68-39.68,39.68Zm0-76.45C19.47,2.92,2.92,19.47,2.92,39.68s16.54,36.76,36.76,36.76,36.76-16.54,36.76-36.76S59.9,2.92,39.69,2.92Zm1.59,51.38v-13.37H24.06v13.37h-3.09V25.06h3.09v13.12h17.21v-13.12h3.09v29.24h-3.09Zm13.2-17.71v17.71h-2.84v-17.71h-4.01v-2.51h4.01v-2.84c0-3.76,2-5.35,5.18-5.35,.84,0,1.92,.08,2.42,.25v2.42c-.42-.08-1.25-.17-1.75-.17-2.67,0-3.01,1.59-3.01,3.42v2.26h4.93v2.51h-4.93Z"/><path class="d" d="M129.47,45.95c0,5.26-3.51,8.36-9.02,8.36h-11.53V25.06h10.86c5.51,0,8.77,2.76,8.77,7.44,0,3.34-1.67,5.85-4.43,6.68,3.51,.75,5.35,3.09,5.35,6.77Zm-8.94-8.02c3.01,0,4.85-1.92,4.85-5.01,0-3.26-2-5.1-5.76-5.1h-7.6v10.11h8.52Zm.33,2.76h-8.86v10.86h8.6c3.51,0,5.76-2.26,5.76-5.68s-2-5.18-5.51-5.18Zm33,13.62h-4.18l-14.12-14.12v14.12h-3.09V25.06h3.09v13.95l14.29-13.95h4.01l-14.62,14.37,14.62,14.87Zm-23.48,25.06c-21.89,0-39.69-17.8-39.69-39.68S108.5,0,130.39,0s39.68,17.8,39.68,39.68-17.8,39.68-39.68,39.68Zm0-76.45c-20.22,0-36.76,16.54-36.76,36.76s16.54,36.76,36.76,36.76,36.76-16.54,36.76-36.76S150.61,2.92,130.39,2.92Z"/><path class="d" d="M206.98,54.31h-9.61V25.06h9.61c8.27,0,13.53,5.68,13.53,14.45s-5.35,14.79-13.53,14.79Zm-.33-26.48h-6.18v23.73h6.18c6.52,0,10.78-4.76,10.78-12.03s-4.09-11.7-10.78-11.7Zm26.57,26.48h-9.61V25.06h9.61c8.19,0,13.45,5.68,13.45,14.45s-5.35,14.79-13.45,14.79Zm-.42-26.48h-6.1v23.73h6.18c6.52,0,10.78-4.76,10.78-12.03s-4.09-11.7-10.86-11.7Zm-11.7,51.55c-21.89,0-39.69-17.8-39.69-39.68S199.21,0,221.1,0s39.68,17.8,39.68,39.68-17.8,39.68-39.68,39.68Zm0-76.45c-20.22,0-36.76,16.54-36.76,36.76s16.54,36.76,36.76,36.76,36.76-16.54,36.76-36.76S241.32,2.92,221.1,2.92Z"/></g></g><g id="b"/><g id="c"/></svg>